<svg width="40" height="40" viewBox="0 0 40 40" fill="none" xmlns="http://www.w3.org/2000/svg">
<g clip-path="url(#clip0_637_1517)">
<path opacity="0.2" d="M13.75 25C18.2373 25 21.875 21.3623 21.875 16.875C21.875 12.3877 18.2373 8.75 13.75 8.75C9.26269 8.75 5.625 12.3877 5.625 16.875C5.625 21.3623 9.26269 25 13.75 25Z" fill="#4CAF4F"/>
<path d="M13.75 25C18.2373 25 21.875 21.3623 21.875 16.875C21.875 12.3877 18.2373 8.75 13.75 8.75C9.26269 8.75 5.625 12.3877 5.625 16.875C5.625 21.3623 9.26269 25 13.75 25Z" stroke="#4CAF4F" stroke-width="2" stroke-miterlimit="10"/>
<path d="M24.2834 9.05262C25.401 8.73776 26.573 8.66603 27.7206 8.84227C28.8682 9.01851 29.9647 9.43862 30.9362 10.0743C31.9078 10.71 32.7318 11.5465 33.3529 12.5275C33.9739 13.5085 34.3775 14.6112 34.5365 15.7613C34.6955 16.9114 34.6062 18.0822 34.2746 19.1949C33.943 20.3075 33.3768 21.3362 32.6142 22.2117C31.8515 23.0871 30.9101 23.789 29.8534 24.2699C28.7966 24.7509 27.6491 24.9998 26.4881 25" stroke="#4CAF4F" stroke-width="2" stroke-linecap="round" stroke-linejoin="round"/>
<path d="M2.49927 30.8432C3.76823 29.0382 5.45285 27.565 7.41091 26.548C9.36897 25.531 11.543 25.0001 13.7494 25C15.9558 24.9999 18.1299 25.5307 20.088 26.5476C22.0461 27.5644 23.7309 29.0375 25 30.8424" stroke="#4CAF4F" stroke-width="2" stroke-linecap="round" stroke-linejoin="round"/>
<path d="M26.488 25C28.6947 24.9984 30.8692 25.5285 32.8275 26.5455C34.7858 27.5625 36.4702 29.0364 37.7381 30.8424" stroke="#4CAF4F" stroke-width="2" stroke-linecap="round" stroke-linejoin="round"/>
</g>
<defs>
<clipPath id="clip0_637_1517">
<rect width="40" height="40" fill="white"/>
</clipPath>
</defs>
</svg>
