<svg width="251" height="161" viewBox="0 0 251 161" fill="none" xmlns="http://www.w3.org/2000/svg">
<path d="M170.881 150.862L199.061 89.9166C199.534 88.8861 200.564 88.2368 201.686 88.2368H248.893C250.18 88.2368 251.034 89.5662 250.499 90.741L222.68 152.037L170.881 150.862Z" fill="#C4C4C4"/>
<path d="M201.789 91.9672L175.535 149.564H220.209L245.516 93.1317C245.928 92.2042 245.258 91.1531 244.239 91.1531H203.066C202.52 91.1428 202.016 91.4622 201.789 91.9672Z" fill="white"/>
<path d="M136.545 149.955H131.911V148.76C131.911 148.101 132.447 147.575 133.095 147.575H135.36C136.019 147.575 136.545 148.111 136.545 148.76V149.955Z" fill="#6B6B6B"/>
<path d="M156.086 149.955H151.453V148.76C151.453 148.101 151.988 147.575 152.637 147.575H154.902C155.561 147.575 156.086 148.111 156.086 148.76V149.955Z" fill="#6B6B6B"/>
<path d="M146.109 149.956H141.476C141.476 149.296 142.012 148.77 142.66 148.77H144.925C145.574 148.76 146.109 149.296 146.109 149.956Z" fill="#6B6B6B"/>
<path d="M187.88 23.2512L187.468 34.2058L195.828 26.1779L187.88 23.2512Z" fill="#333333"/>
<path d="M199.843 117.535H205.033C205.341 117.535 205.619 117.71 205.753 117.988L207.689 121.987C207.926 122.481 208.574 122.595 208.966 122.213L218.664 112.856C218.819 112.712 219.014 112.629 219.22 112.629H225.758C226.469 112.629 226.829 113.485 226.335 114L206.906 133.797C206.505 134.198 205.825 134.075 205.599 133.56L199.102 118.658C198.876 118.132 199.267 117.535 199.843 117.535Z" fill="#C4C4C4"/>
<path d="M163.458 132.344C163.355 132.344 163.262 132.292 163.2 132.21C163.108 132.076 154.119 118.637 151.875 100.026C150.557 89.092 151.803 78.529 155.561 68.6462C160.256 56.3004 168.915 44.9748 181.301 34.9993C181.434 34.8962 181.63 34.9168 181.733 35.0508C181.836 35.1848 181.815 35.3806 181.681 35.4836C169.388 45.387 160.791 56.6199 156.137 68.8626C152.41 78.6527 151.185 89.1023 152.482 99.9435C154.696 118.411 163.612 131.746 163.705 131.88C163.798 132.024 163.767 132.21 163.623 132.302C163.581 132.323 163.52 132.344 163.458 132.344Z" fill="black"/>
<path d="M179.787 101.366C179.684 101.366 179.571 101.304 179.52 101.211C179.478 101.139 175.298 93.472 173.929 81.9918C172.662 71.3876 173.599 55.2494 185.234 38.5857C185.326 38.4414 185.522 38.4105 185.656 38.5136C185.79 38.6063 185.831 38.8021 185.728 38.9361C174.217 55.4349 173.291 71.3979 174.526 81.8887C175.875 93.2658 180.003 100.84 180.045 100.912C180.127 101.057 180.075 101.252 179.921 101.325C179.88 101.345 179.828 101.366 179.787 101.366Z" fill="black"/>
<path d="M176.4 19.7164L187.88 24.6115L200.914 36.5142L214.299 3.93896L176.4 19.7164Z" fill="#C4C4C4"/>
<path d="M214.122 3.71257L187.692 24.3879L188.066 24.867L214.496 4.19162L214.122 3.71257Z" fill="white"/>
<path d="M220.209 154.511H117.61C116.241 154.511 115.139 153.408 115.139 152.037C115.139 150.667 116.241 149.564 117.61 149.564H220.209C221.578 149.564 222.68 150.667 222.68 152.037C222.68 153.398 221.578 154.511 220.209 154.511Z" fill="#C4C4C4"/>
<path d="M212.641 152.872H206.402C205.918 152.872 205.537 152.48 205.537 152.006C205.537 151.522 205.928 151.141 206.402 151.141H212.641C213.125 151.141 213.506 151.532 213.506 152.006C213.506 152.48 213.125 152.872 212.641 152.872Z" fill="white"/>
<path d="M216.904 152.944C217.404 152.944 217.81 152.538 217.81 152.037C217.81 151.536 217.404 151.13 216.904 151.13C216.403 151.13 215.998 151.536 215.998 152.037C215.998 152.538 216.403 152.944 216.904 152.944Z" fill="white"/>
<path d="M63.238 126.583C63.238 126.583 92.8489 103.963 101.508 92.2351C101.508 92.2351 99.1191 80.7653 102.537 77.5294C105.956 74.2935 109.477 77.2408 109.477 77.2408C109.477 77.2408 114.964 73.0466 119.206 77.7664C119.206 77.7664 122.532 77.6221 122.82 81.1363C122.82 81.1363 125.857 81.5175 125.229 85.5263C125.229 85.5263 126.815 85.3202 126.105 90.0607C125.394 94.8011 109.127 124.718 109.127 124.718L63.238 126.583Z" fill="white"/>
<path d="M62.2805 126.933L63.0527 126.346C63.3513 126.119 92.5503 103.757 101.178 92.1733C100.911 90.8027 98.9955 80.4768 102.331 77.3233C105.441 74.376 108.674 76.3134 109.487 76.8802C110.506 76.1897 115.438 73.2527 119.35 77.4882C120.02 77.5088 122.727 77.8077 123.108 80.9096C123.51 81.0126 124.313 81.3115 124.91 82.105C125.507 82.9088 125.734 83.9806 125.579 85.31C125.703 85.3512 125.837 85.4336 125.971 85.5676C126.619 86.2271 126.774 87.7626 126.424 90.1329C125.713 94.8733 110.074 123.677 109.415 124.893L109.333 125.047L109.158 125.058L62.2805 126.933ZM106.069 76.3237C105.06 76.3237 103.896 76.6741 102.754 77.7665C99.5 80.8478 101.786 92.0703 101.806 92.1836L101.837 92.3176L101.755 92.431C93.9506 102.994 68.9008 122.605 64.1955 126.253L108.941 124.45C110.197 122.131 125.137 94.5023 125.806 90.0401C126.218 87.2577 125.827 86.3199 125.549 86.021C125.394 85.8459 125.26 85.8562 125.26 85.8562L124.89 85.8665L124.931 85.4955C125.137 84.2073 124.962 83.1974 124.426 82.476C123.778 81.6104 122.8 81.4661 122.789 81.4661L122.542 81.4352L122.522 81.1878C122.264 78.0138 119.361 78.0859 119.227 78.0962L119.083 78.1065L118.99 78.0035C117.312 76.1382 115.242 75.4787 112.833 76.0558C111.011 76.4989 109.683 77.4985 109.672 77.5088L109.477 77.6531L109.291 77.4985C109.199 77.4058 107.85 76.3237 106.069 76.3237Z" fill="black"/>
<path d="M115.86 96.0998C115.356 96.0998 114.862 95.8319 114.398 95.296C113.214 93.9151 113.873 90.1845 115.747 87.6288C117.981 84.5887 121.358 83.7437 125.024 85.3204C125.178 85.3822 125.25 85.5677 125.188 85.7223C125.116 85.8769 124.941 85.949 124.787 85.8872C120.164 83.8983 117.456 86.3612 116.251 87.9998C114.439 90.4731 113.976 93.8635 114.872 94.9044C115.242 95.3269 115.582 95.5227 115.932 95.4918C116.869 95.4196 117.858 93.7914 118.722 92.3486C118.98 91.9261 119.237 91.5036 119.484 91.1223C120.071 90.236 120.751 89.7208 121.502 89.5765C122.439 89.4013 123.129 89.8754 123.16 89.896C123.294 89.9887 123.335 90.1845 123.232 90.3185C123.139 90.4525 122.944 90.4937 122.81 90.4009C122.8 90.4009 122.285 90.0505 121.605 90.1845C121.018 90.2979 120.483 90.7307 119.989 91.4624C119.742 91.8334 119.495 92.2456 119.237 92.6681C118.239 94.3067 117.209 95.9967 115.973 96.0998C115.932 96.0998 115.891 96.0998 115.86 96.0998Z" fill="black"/>
<path d="M113.914 93.2246C113.863 93.2246 113.822 93.2143 113.77 93.1937C113.132 92.8536 111.937 91.8128 111.474 90.0196C111.155 88.8036 111.114 86.8353 112.699 84.4032C116.046 79.2609 122.81 80.8479 122.882 80.8582C123.047 80.8994 123.15 81.0643 123.109 81.2292C123.067 81.3941 122.903 81.4868 122.738 81.4559C122.676 81.4353 116.324 79.9719 113.214 84.733C112.04 86.5364 111.649 88.2677 112.061 89.8651C112.473 91.4521 113.533 92.3796 114.048 92.6475C114.203 92.7299 114.254 92.9154 114.172 93.0597C114.131 93.1628 114.028 93.2246 113.914 93.2246Z" fill="black"/>
<path d="M111.948 90.7719C111.896 90.7719 111.855 90.7616 111.803 90.741C111.67 90.6688 108.571 88.9581 109.559 83.8055C110.537 78.6528 118.619 77.5707 118.969 77.5295C119.144 77.5089 119.289 77.6223 119.309 77.7974C119.33 77.9623 119.216 78.1169 119.041 78.1375C118.959 78.1478 111.062 79.2093 110.156 83.9188C109.26 88.6078 111.978 90.1433 112.092 90.2051C112.236 90.2875 112.298 90.473 112.215 90.6173C112.164 90.7203 112.051 90.7719 111.948 90.7719Z" fill="black"/>
<path d="M104.73 97.5425C104.669 97.5425 104.617 97.5219 104.555 97.491C104.432 97.4085 101.456 95.3784 101.199 92.2662C101.189 92.1013 101.312 91.9467 101.477 91.9364C101.642 91.9261 101.796 92.0498 101.806 92.2146C102.043 95.0383 104.874 96.9654 104.895 96.986C105.039 97.0788 105.07 97.2746 104.977 97.4085C104.926 97.491 104.833 97.5425 104.73 97.5425Z" fill="black"/>
<path d="M109.508 94.6468C109.415 94.6468 109.322 94.6055 109.26 94.5231C109.157 94.3891 109.178 94.1933 109.312 94.0903C109.755 93.7502 111.989 92.0292 112.895 92.0807C113.06 92.091 113.193 92.2353 113.183 92.4002C113.173 92.5651 113.039 92.7094 112.864 92.6888C112.864 92.6888 112.854 92.6888 112.843 92.6888C112.329 92.6888 110.692 93.7811 109.683 94.5643C109.641 94.6261 109.569 94.6468 109.508 94.6468Z" fill="black"/>
<path d="M103.742 83.3212C103.587 83.3212 103.454 83.2078 103.443 83.0532C103.433 82.9502 103.33 82.0536 103.814 81.528C104.04 81.2807 104.36 81.1467 104.741 81.1674C105.214 81.188 105.657 81.4353 106.161 81.7135C107.119 82.2494 108.21 82.8574 109.899 82.2391C110.053 82.1773 110.239 82.2597 110.29 82.4246C110.352 82.5792 110.269 82.7647 110.105 82.8162C108.159 83.5376 106.831 82.7956 105.853 82.2597C105.41 82.0124 105.029 81.796 104.71 81.7857C104.514 81.7754 104.36 81.8269 104.257 81.9506C104.01 82.2288 104.01 82.7956 104.04 82.9914C104.061 83.1563 103.938 83.3109 103.773 83.3315C103.773 83.3212 103.752 83.3212 103.742 83.3212Z" fill="black"/>
<path d="M111.34 80.9818C111.186 80.9818 111.062 80.8685 111.042 80.7139C111.042 80.6933 110.712 78.3952 109.312 77.4986C109.168 77.4059 109.127 77.2204 109.219 77.0761C109.312 76.9318 109.497 76.8906 109.642 76.9834C111.289 78.0242 111.629 80.5284 111.649 80.6314C111.67 80.7963 111.557 80.9509 111.382 80.9715C111.371 80.9818 111.351 80.9818 111.34 80.9818Z" fill="black"/>
<path d="M91.8605 2.19745C72.2366 0.91959 67.6446 15.3677 63.8351 22.0043C60.0257 28.6513 48.587 38.2455 29.2925 39.6059C9.98781 40.9558 9.98781 60.031 9.86426 73.3249C9.74071 86.6188 3.37787 102.963 0.63917 111.723C-1.80095 119.503 2.11148 141.752 23.5063 141.629C44.9011 141.505 107.067 14.9864 107.067 14.9864C107.067 14.9864 102.156 2.8673 91.8605 2.19745Z" fill="black"/>
<path d="M81.1426 27.4147C81.1426 27.4147 87.1142 22.3135 87.9173 3.26924C87.979 1.87802 88.9777 0.682598 90.3471 0.435269C92.3239 0.0745824 95.042 0.229164 96.3805 3.23832C98.6249 8.28794 83.9122 29.6509 83.9122 29.6509L81.1426 27.4147Z" fill="white"/>
<path d="M83.974 30.1043L80.6587 27.4249L80.9367 27.1879C80.947 27.1776 82.4193 25.8791 83.974 22.3032C85.4051 18.9951 87.1966 13.0077 87.6084 3.2692C87.6702 1.7337 88.8027 0.41462 90.2853 0.146681C92.4166 -0.244922 95.2479 -0.0388162 96.6584 3.12492C98.9544 8.2776 84.7667 28.9604 84.1593 29.8364L83.974 30.1043ZM81.6059 27.394L83.8504 29.2078C84.6432 28.0432 87.804 23.3234 90.728 18.1913C96.2775 8.43217 96.7099 4.74287 96.1025 3.37225C94.8567 0.569201 92.3136 0.394007 90.4089 0.744388C89.2043 0.960801 88.2879 2.03256 88.2364 3.28981C87.5157 20.1906 82.7899 26.1471 81.6059 27.394Z" fill="black"/>
<path d="M111.124 29.6509C111.124 29.6509 111.124 29.6509 111.196 39.9151C111.268 50.0349 97.3378 45.7582 96.926 45.6448L96.8127 45.7788C95.2787 47.2422 94.0329 49.3857 93.0445 51.8796H93.0342C89.06 61.8861 88.6687 77.5399 88.6687 77.5399C88.6687 77.5399 60.6743 62.6589 66.1826 57.4238C71.6909 52.1784 78.3626 37.5757 78.3626 37.5757C78.3626 37.5757 69.6214 34.4017 74.2339 27.7238C77.4668 23.0349 84.6225 28.8986 84.6225 28.8986C91.2324 28.0021 99.0778 21.6643 99.0778 21.6643C99.0778 21.6643 98.5939 24.9002 100.447 24.6322C102.3 24.354 104.514 19.4693 104.71 18.2223C104.916 16.9857 102.445 17.5319 102.784 17.2639C103.124 16.9857 105.719 13.2036 105.719 13.2036C105.719 13.2036 107.603 15.8933 109.055 20.9944C110.496 26.0853 111.598 24.4364 112.967 26.4357C114.357 28.4143 111.124 29.6509 111.124 29.6509Z" fill="white"/>
<path d="M88.9571 78.0344L88.5143 77.7974C87.598 77.313 66.0385 65.7814 65.1736 59.4333C65.0501 58.5573 65.3178 57.7947 65.9561 57.1867C70.929 52.4566 76.9624 39.8119 77.9302 37.7302C76.9109 37.2974 73.6986 35.7516 72.8029 32.9279C72.2675 31.2482 72.6587 29.4344 73.9766 27.5382C74.7282 26.4562 75.7372 25.8173 76.9727 25.6421C80.2159 25.168 84.015 28.0226 84.7049 28.5688C91.1295 27.631 98.7999 21.4787 98.8823 21.4169L99.4897 20.9222L99.3765 21.6951C99.3044 22.2001 99.222 23.6119 99.7368 24.1272C99.9016 24.2921 100.118 24.3436 100.396 24.3127C101.981 24.0757 104.195 19.4279 104.401 18.1501C104.432 17.9955 104.391 17.9234 104.36 17.8924C104.164 17.6554 103.495 17.6451 103.145 17.6451C102.784 17.6348 102.548 17.6348 102.465 17.3875L102.393 17.1814L102.589 16.9959C102.805 16.8104 104.226 14.8008 105.461 12.9974L105.708 12.6367L105.966 12.9974C106.048 13.1108 107.901 15.7902 109.343 20.881C110.249 24.086 110.98 24.4982 111.752 24.9413C112.195 25.1886 112.699 25.4772 113.214 26.2295C113.595 26.786 113.698 27.3424 113.533 27.8886C113.204 28.9501 111.917 29.6199 111.412 29.8466L111.484 39.9047C111.505 42.3573 110.712 44.202 109.137 45.3871C105.482 48.1386 98.6866 46.4589 96.9981 45.9745C95.5876 47.3142 94.3521 49.334 93.3019 51.9722L93.2195 52.168C89.3792 62.0199 88.9571 77.3749 88.9468 77.5295L88.9571 78.0344ZM77.7037 26.2192C77.4875 26.2192 77.2713 26.2295 77.0653 26.2604C76.0049 26.415 75.1297 26.9611 74.4914 27.8989C73.2971 29.6302 72.9264 31.2688 73.4 32.7528C74.3575 35.7619 78.4244 37.2665 78.4656 37.2871L78.7745 37.4005L78.6406 37.6993C78.3626 38.297 71.8762 52.4153 66.3885 57.6402C65.8943 58.1142 65.6987 58.6707 65.7914 59.3612C66.5533 64.926 85.2711 75.3447 88.3805 77.0348C88.4937 74.2833 89.1939 60.7112 92.7562 51.7661L92.8386 51.5703C93.9094 48.9321 95.1758 46.902 96.6069 45.552L96.8334 45.2944L97.0187 45.3459C98.3984 45.7478 105.266 47.5821 108.797 44.9131C110.208 43.8516 110.908 42.1718 110.898 39.9253L110.815 29.4447L111.011 29.3726C111.031 29.3623 112.658 28.7337 112.967 27.7237C113.08 27.3631 112.998 26.9921 112.73 26.5902C112.287 25.9512 111.896 25.7245 111.474 25.4875C110.63 25.0031 109.744 24.5085 108.777 21.0665C107.665 17.1505 106.275 14.6566 105.729 13.7497C105.111 14.6463 103.999 16.2539 103.382 17.0474C103.886 17.0577 104.524 17.1195 104.854 17.5111C104.967 17.6554 105.091 17.8924 105.029 18.2634C104.833 19.4486 102.62 24.6115 100.509 24.931C100.035 25.0031 99.6236 24.8795 99.325 24.5806C98.7896 24.0344 98.7072 23.0348 98.7278 22.3444C96.8128 23.8077 90.3573 28.4451 84.674 29.2077L84.5401 29.2283L84.4372 29.1459C84.396 29.1047 80.8233 26.2192 77.7037 26.2192Z" fill="black"/>
<path d="M96.9054 45.3149C95.3713 46.7783 94.1255 48.9218 93.1371 51.4157H93.1269C84.7357 46.4073 86.661 37.9569 87.876 40.389C89.1012 42.8313 96.9054 45.3149 96.9054 45.3149Z" fill="black"/>
<path d="M22.7136 113.237C22.7136 113.237 1.18492 97.697 13.7665 92.3691C26.348 87.0412 46.6205 70.1405 53.9924 63.679C61.3539 57.2176 75.2121 49.1588 78.373 59.0313C81.5235 68.8935 84.5814 73.2012 89.0601 74.6748C89.0601 74.6748 85.9404 118.339 89.0601 123.666L93.0548 155.18C93.0548 155.18 45.0247 165.547 15.2594 151.398C15.2594 151.398 30.6517 122.863 32.2681 118.627L22.7136 113.237Z" fill="white"/>
<path d="M56.2369 159.148C43.12 159.148 27.5218 157.571 15.1153 151.676L14.827 151.542L14.9814 151.254C15.1358 150.976 29.8486 123.677 31.8769 118.761L22.5386 113.485C21.9723 113.083 8.7833 103.478 9.5452 96.6664C9.77171 94.6878 11.1514 93.142 13.6429 92.0805C27.7586 86.1034 51.1611 65.7401 53.7865 63.442C58.5329 59.2786 68.1904 52.6729 74.2959 54.3733C76.4065 54.9607 77.8788 56.4962 78.6613 58.9386C81.7398 68.5844 84.6844 72.9126 89.1528 74.3863L89.3793 74.4584L89.3587 74.6954C89.3278 75.1283 86.2802 118.328 89.3175 123.512L89.3587 123.625L93.3844 155.417L93.1064 155.479C92.9828 155.51 80.8955 158.086 65.3179 158.9C62.4968 159.055 59.4389 159.148 56.2369 159.148ZM15.6712 151.264C24.1859 155.252 39.6503 159.642 65.287 158.303C79.5159 157.561 90.8207 155.335 92.7048 154.953L88.7512 123.78C85.7551 118.349 88.4527 78.7145 88.7204 74.9015C84.1696 73.2939 81.1632 68.8317 78.0641 59.1344C77.3537 56.9084 76.0256 55.5069 74.1208 54.9813C69.0347 53.5695 60.2111 58.6294 54.1777 63.9263C51.5523 66.2347 28.0777 86.6496 13.8695 92.6679C11.5941 93.6367 10.338 95.0073 10.1424 96.7592C9.43194 103.118 22.3738 112.64 22.868 113L32.6182 118.503L32.5256 118.751C31.0018 122.76 17.3701 148.1 15.6712 151.264Z" fill="black"/>
<path d="M63.4851 124.924L63.0115 124.543C63.1453 124.378 76.6123 107.085 79.4334 62.9475L80.0408 62.9887C78.5582 86.1551 74.1516 101.747 70.7128 110.754C66.9651 120.523 63.516 124.883 63.4851 124.924Z" fill="black"/>
<path d="M11.9955 94.9352C9.57601 97.4188 14.7857 105.076 22.8474 111.475L26.8113 101.881C26.8113 101.881 16.5669 90.2462 11.9955 94.9352Z" fill="black"/>
<path d="M26.8112 102.376C26.8112 102.376 -1.10083 154.84 55.547 160.106C64.5147 160.591 84.5916 159.787 104.792 151.336C124.982 142.886 127.958 141.608 127.958 141.608C127.958 141.608 128.081 144.865 130.357 144.926C132.632 144.988 133.178 142.701 133.178 142.701C133.178 142.701 133.6 146.246 136.061 146.246C138.521 146.246 139.067 142.154 139.067 142.154C139.067 142.154 141.044 148.348 143.69 148.348C146.336 148.348 145.718 129.118 134.496 124.728C123.273 120.338 94.3933 122.11 83.2634 122.997C72.1336 123.883 63.4748 125.47 61.3642 125.12C59.2535 124.769 43.5214 121.667 37.4263 113.98C31.3208 106.292 26.8112 102.376 26.8112 102.376Z" fill="white"/>
<path d="M59.7167 160.518C57.7502 160.518 56.3191 160.457 55.5263 160.415C39.1147 158.89 28.1805 153.253 23.0223 143.669C13.8075 126.562 26.4096 102.468 26.5435 102.231L26.7288 101.891L27.0171 102.139C27.0582 102.18 31.6193 106.158 37.663 113.784C44.0361 121.832 61.2405 124.78 61.4052 124.81C62.4863 124.986 65.4927 124.625 69.6522 124.12C73.3793 123.667 78.0227 123.1 83.2324 122.688C94.9491 121.76 123.407 120.07 134.598 124.439C144.05 128.129 145.955 141.938 145.08 146.555C144.75 148.286 144.132 148.647 143.679 148.647C141.517 148.647 139.839 145.071 139.129 143.257C138.768 144.545 137.914 146.544 136.05 146.544C134.197 146.544 133.394 144.813 133.064 143.69C132.642 144.401 131.829 145.246 130.336 145.225C128.524 145.174 127.834 143.319 127.669 142.051C126.372 142.608 121.307 144.741 104.895 151.615C86.1976 159.457 68.1284 160.518 59.7167 160.518ZM26.9038 102.87C25.4006 105.89 15.1048 127.675 23.568 143.381C28.6232 152.769 39.403 158.303 55.5778 159.807C59.7373 160.034 81.7189 160.673 104.668 151.068C124.622 142.721 127.793 141.351 127.824 141.34L128.236 141.165L128.256 141.608C128.256 141.639 128.39 144.576 130.357 144.628C132.354 144.648 132.848 142.721 132.869 142.639L133.27 140.99L133.476 142.68C133.476 142.711 133.898 145.957 136.05 145.957C138.223 145.957 138.748 142.175 138.748 142.134L138.923 140.784L139.335 142.082C139.87 143.741 141.682 148.059 143.669 148.059C143.896 148.059 144.246 147.647 144.472 146.462C145.316 141.979 143.484 128.593 134.362 125.027C123.283 120.699 94.9388 122.389 83.2633 123.316C78.0639 123.728 73.4308 124.295 69.7037 124.749C65.3382 125.284 62.4554 125.635 61.2817 125.439C61.1066 125.408 43.6758 122.42 37.1585 114.186C32.0414 107.693 27.9952 103.87 26.9038 102.87Z" fill="black"/>
<path d="M49.6887 133.117C49.627 133.117 49.5652 133.096 49.5137 133.065C49.3696 132.972 49.3387 132.776 49.4313 132.642C49.4725 132.581 54.0954 125.975 61.2922 124.821C61.4569 124.8 61.6113 124.903 61.6422 125.078C61.6731 125.243 61.5599 125.408 61.3848 125.429C54.4454 126.542 49.977 132.931 49.9255 132.993C49.8844 133.075 49.7917 133.117 49.6887 133.117Z" fill="black"/>
<path d="M133.167 143.01C133.147 143.01 133.126 143.01 133.116 143.01C132.951 142.979 132.838 142.824 132.869 142.649C133.765 137.723 133.167 134.116 131.077 131.921C128.411 129.118 124.148 129.644 124.107 129.654C123.932 129.675 123.788 129.561 123.767 129.386C123.747 129.221 123.86 129.067 124.035 129.046C124.22 129.025 128.637 128.469 131.53 131.499C133.765 133.838 134.413 137.63 133.487 142.762C133.445 142.907 133.312 143.01 133.167 143.01Z" fill="black"/>
<path d="M138.954 143.01C138.933 143.01 138.902 143.01 138.882 142.999C138.717 142.958 138.614 142.793 138.655 142.628C140.2 136.023 138.943 131.581 137.605 129.015C136.164 126.243 134.331 124.996 134.31 124.986C134.166 124.893 134.135 124.697 134.228 124.563C134.321 124.419 134.506 124.378 134.65 124.481C134.722 124.532 142.31 129.716 139.252 142.773C139.221 142.917 139.098 143.01 138.954 143.01Z" fill="black"/>
<path d="M127.947 141.917C127.783 141.917 127.639 141.783 127.639 141.618C127.639 141.598 127.618 139.691 127.422 138.733C127.391 138.589 127.33 138.486 127.216 138.413C126.887 138.197 126.269 138.269 126.063 138.31C125.899 138.341 125.734 138.238 125.703 138.073C125.672 137.909 125.775 137.744 125.94 137.713C126.043 137.692 126.959 137.507 127.556 137.898C127.803 138.063 127.978 138.31 128.03 138.609C128.236 139.63 128.256 141.526 128.256 141.608C128.256 141.783 128.122 141.917 127.947 141.917Z" fill="black"/>
<path d="M107.665 24.1993C108.035 22.5505 106.089 23.1379 105.482 23.9932C104.874 24.8589 101.93 27.1363 101.477 27.1363C101.024 27.1363 106.656 28.7234 107.665 24.1993Z" fill="#232323"/>
<path d="M106.975 37.3903C105.842 37.3903 104.946 37.0708 104.308 36.4422C103.104 35.257 103.258 33.433 103.248 33.3609C103.237 33.0414 103.732 33.0311 103.907 33.0414C104.071 33.0517 104.195 33.2063 104.185 33.3712C104.185 33.3918 103.742 35.0303 104.741 36.0093C105.389 36.638 106.378 36.8853 107.675 36.741C107.85 36.7307 107.994 36.8441 108.015 37.009C108.035 37.1738 107.912 37.3284 107.747 37.349C107.479 37.38 107.222 37.3903 106.975 37.3903Z" fill="black"/>
<path d="M84.2312 34.8653C84.0871 34.8653 83.9532 34.7622 83.9326 34.6077C83.2222 30.5061 77.2609 30.7535 77.1991 30.7535C77.0344 30.7638 76.8902 30.6298 76.88 30.4649C76.8697 30.3 77.0035 30.1557 77.1682 30.1454C77.23 30.1351 83.737 29.8775 84.5298 34.5149C84.5607 34.6798 84.4474 34.8447 84.2827 34.8653C84.2724 34.8653 84.2518 34.8653 84.2312 34.8653Z" fill="black"/>
<path d="M85.9507 39.5749H85.9404C85.7242 39.5646 80.5763 39.2967 78.6407 37.9776C78.4965 37.8848 78.4656 37.689 78.5583 37.5551C78.651 37.4211 78.8466 37.3799 78.9804 37.4726C80.7719 38.699 85.9095 38.9669 85.961 38.9669C86.1257 38.9772 86.2596 39.1215 86.2493 39.2864C86.2493 39.4513 86.1155 39.5749 85.9507 39.5749Z" fill="black"/>
</svg>
