<svg width="242" height="50" viewBox="0 0 242 50" fill="none" xmlns="http://www.w3.org/2000/svg">
<path d="M0.160511 39V2.63636H7.84872V18.6697H8.32812L21.4141 2.63636H30.6293L17.1349 18.9183L30.7891 39H21.5916L11.6307 24.0497L7.84872 28.6662V39H0.160511ZM42.2681 39.5149C40.5281 39.5149 38.9774 39.2131 37.6161 38.6094C36.2549 37.9938 35.1777 37.0883 34.3846 35.8928C33.6033 34.6854 33.2127 33.1821 33.2127 31.3828C33.2127 29.8677 33.4909 28.5952 34.0472 27.5653C34.6036 26.5355 35.3612 25.7069 36.32 25.0795C37.2788 24.4522 38.3678 23.9787 39.587 23.6591C40.8181 23.3395 42.1083 23.1146 43.4577 22.9844C45.0439 22.8187 46.3223 22.6648 47.293 22.5227C48.2636 22.3688 48.9679 22.1439 49.4059 21.848C49.8439 21.5521 50.0629 21.1141 50.0629 20.5341V20.4276C50.0629 19.303 49.7077 18.433 48.9975 17.8175C48.2991 17.2019 47.3048 16.8942 46.0146 16.8942C44.6533 16.8942 43.5702 17.196 42.7653 17.7997C41.9603 18.3916 41.4277 19.1373 41.1673 20.0369L34.1715 19.4688C34.5266 17.8116 35.225 16.3793 36.2667 15.1719C37.3084 13.9527 38.6519 13.0175 40.2972 12.3665C41.9544 11.7036 43.872 11.3722 46.0501 11.3722C47.5652 11.3722 49.0153 11.5497 50.4002 11.9048C51.797 12.2599 53.034 12.8104 54.1112 13.5561C55.2002 14.3018 56.0584 15.2607 56.6857 16.4325C57.3131 17.5926 57.6268 18.9834 57.6268 20.6051V39H50.4535V35.218H50.2404C49.8024 36.0703 49.2165 36.822 48.4826 37.473C47.7487 38.1122 46.8668 38.6153 45.837 38.9822C44.8072 39.3374 43.6175 39.5149 42.2681 39.5149ZM44.4343 34.2947C45.547 34.2947 46.5295 34.0758 47.3817 33.6378C48.234 33.188 48.9028 32.5843 49.3881 31.8267C49.8735 31.0691 50.1161 30.2109 50.1161 29.2521V26.358C49.8794 26.5118 49.5539 26.6539 49.1396 26.7841C48.7371 26.9025 48.2814 27.0149 47.7724 27.1214C47.2634 27.2161 46.7544 27.3049 46.2454 27.3878C45.7364 27.4588 45.2747 27.5239 44.8604 27.5831C43.9727 27.7133 43.1973 27.9205 42.5344 28.2045C41.8716 28.4886 41.3567 28.8733 40.9897 29.3587C40.6228 29.8321 40.4393 30.424 40.4393 31.1342C40.4393 32.1641 40.8121 32.9512 41.5579 33.4957C42.3155 34.0284 43.2743 34.2947 44.4343 34.2947ZM71.272 39.5149C69.532 39.5149 67.9813 39.2131 66.62 38.6094C65.2588 37.9938 64.1816 37.0883 63.3885 35.8928C62.6072 34.6854 62.2166 33.1821 62.2166 31.3828C62.2166 29.8677 62.4948 28.5952 63.0511 27.5653C63.6075 26.5355 64.3651 25.7069 65.3239 25.0795C66.2827 24.4522 67.3717 23.9787 68.5909 23.6591C69.822 23.3395 71.1122 23.1146 72.4616 22.9844C74.0478 22.8187 75.3262 22.6648 76.2969 22.5227C77.2675 22.3688 77.9718 22.1439 78.4098 21.848C78.8478 21.5521 79.0668 21.1141 79.0668 20.5341V20.4276C79.0668 19.303 78.7116 18.433 78.0014 17.8175C77.303 17.2019 76.3087 16.8942 75.0185 16.8942C73.6572 16.8942 72.5741 17.196 71.7692 17.7997C70.9643 18.3916 70.4316 19.1373 70.1712 20.0369L63.1754 19.4688C63.5305 17.8116 64.2289 16.3793 65.2706 15.1719C66.3123 13.9527 67.6558 13.0175 69.3011 12.3665C70.9583 11.7036 72.8759 11.3722 75.054 11.3722C76.5691 11.3722 78.0192 11.5497 79.4041 11.9048C80.8009 12.2599 82.0379 12.8104 83.1151 13.5561C84.2041 14.3018 85.0623 15.2607 85.6896 16.4325C86.317 17.5926 86.6307 18.9834 86.6307 20.6051V39H79.4574V35.218H79.2443C78.8063 36.0703 78.2204 36.822 77.4865 37.473C76.7526 38.1122 75.8707 38.6153 74.8409 38.9822C73.8111 39.3374 72.6214 39.5149 71.272 39.5149ZM73.4382 34.2947C74.5509 34.2947 75.5334 34.0758 76.3857 33.6378C77.2379 33.188 77.9067 32.5843 78.392 31.8267C78.8774 31.0691 79.12 30.2109 79.12 29.2521V26.358C78.8833 26.5118 78.5578 26.6539 78.1435 26.7841C77.741 26.9025 77.2853 27.0149 76.7763 27.1214C76.2673 27.2161 75.7583 27.3049 75.2493 27.3878C74.7403 27.4588 74.2786 27.5239 73.8643 27.5831C72.9766 27.7133 72.2012 27.9205 71.5384 28.2045C70.8755 28.4886 70.3606 28.8733 69.9936 29.3587C69.6267 29.8321 69.4432 30.424 69.4432 31.1342C69.4432 32.1641 69.8161 32.9512 70.5618 33.4957C71.3194 34.0284 72.2782 34.2947 73.4382 34.2947ZM92.4989 11.7273H100.063V40.3494C100.063 42.4564 99.6486 44.161 98.82 45.4631C97.9914 46.7652 96.8017 47.718 95.2511 48.3217C93.7122 48.9254 91.8716 49.2273 89.729 49.2273C89.4686 49.2273 89.2201 49.2214 88.9833 49.2095C88.7347 49.2095 88.4743 49.2036 88.2021 49.1918V43.2791C88.4033 43.291 88.5808 43.2969 88.7347 43.2969C88.8768 43.3087 89.0307 43.3146 89.1964 43.3146C90.4156 43.3146 91.2679 43.0542 91.7532 42.5334C92.2504 42.0244 92.4989 41.255 92.4989 40.2251V11.7273ZM96.2631 8.21165C95.1504 8.21165 94.1916 7.83878 93.3867 7.09304C92.5818 6.33546 92.1793 5.42992 92.1793 4.37642C92.1793 3.33475 92.5818 2.44105 93.3867 1.69531C94.1916 0.937735 95.1504 0.558947 96.2631 0.558947C97.3995 0.558947 98.3642 0.937735 99.1573 1.69531C99.9622 2.44105 100.365 3.33475 100.365 4.37642C100.365 5.42992 99.9622 6.33546 99.1573 7.09304C98.3642 7.83878 97.3995 8.21165 96.2631 8.21165Z" fill="white"/>
<path d="M106.264 39V2.63636H113.952V18.6697H114.432L127.518 2.63636H136.733L123.238 18.9183L136.893 39H127.695L117.734 24.0497L113.952 28.6662V39H106.264ZM148.159 23.233V39H140.595V2.63636H147.945V16.5391H148.265C148.881 14.9292 149.875 13.6686 151.248 12.7571C152.621 11.8338 154.343 11.3722 156.415 11.3722C158.309 11.3722 159.96 11.7865 161.369 12.6151C162.789 13.4318 163.89 14.6096 164.671 16.1484C165.464 17.6754 165.855 19.5043 165.843 21.6349V39H158.279V22.9844C158.291 21.3035 157.865 19.9955 157.001 19.0604C156.149 18.1252 154.953 17.6577 153.414 17.6577C152.384 17.6577 151.473 17.8767 150.68 18.3146C149.899 18.7526 149.283 19.3918 148.833 20.2322C148.395 21.0608 148.17 22.0611 148.159 23.233ZM184.118 39.5327C181.36 39.5327 178.975 38.9467 176.963 37.7749C174.962 36.5911 173.417 34.9458 172.328 32.8388C171.239 30.7199 170.695 28.2637 170.695 25.4702C170.695 22.6529 171.239 20.1908 172.328 18.0838C173.417 15.965 174.962 14.3196 176.963 13.1477C178.975 11.964 181.36 11.3722 184.118 11.3722C186.876 11.3722 189.256 11.964 191.256 13.1477C193.268 14.3196 194.819 15.965 195.908 18.0838C196.997 20.1908 197.542 22.6529 197.542 25.4702C197.542 28.2637 196.997 30.7199 195.908 32.8388C194.819 34.9458 193.268 36.5911 191.256 37.7749C189.256 38.9467 186.876 39.5327 184.118 39.5327ZM184.154 33.6733C185.408 33.6733 186.456 33.3182 187.297 32.608C188.137 31.8859 188.77 30.9034 189.196 29.6605C189.634 28.4176 189.853 27.0031 189.853 25.4169C189.853 23.8307 189.634 22.4162 189.196 21.1733C188.77 19.9304 188.137 18.9479 187.297 18.2259C186.456 17.5038 185.408 17.1428 184.154 17.1428C182.887 17.1428 181.822 17.5038 180.958 18.2259C180.105 18.9479 179.46 19.9304 179.022 21.1733C178.596 22.4162 178.383 23.8307 178.383 25.4169C178.383 27.0031 178.596 28.4176 179.022 29.6605C179.46 30.9034 180.105 31.8859 180.958 32.608C181.822 33.3182 182.887 33.6733 184.154 33.6733ZM202.46 11.7273H210.024V40.3494C210.024 42.4564 209.609 44.161 208.781 45.4631C207.952 46.7652 206.763 47.718 205.212 48.3217C203.673 48.9254 201.833 49.2273 199.69 49.2273C199.43 49.2273 199.181 49.2214 198.944 49.2095C198.696 49.2095 198.435 49.2036 198.163 49.1918V43.2791C198.364 43.291 198.542 43.2969 198.696 43.2969C198.838 43.3087 198.992 43.3146 199.157 43.3146C200.377 43.3146 201.229 43.0542 201.714 42.5334C202.211 42.0244 202.46 41.255 202.46 40.2251V11.7273ZM206.224 8.21165C205.111 8.21165 204.153 7.83878 203.348 7.09304C202.543 6.33546 202.14 5.42992 202.14 4.37642C202.14 3.33475 202.543 2.44105 203.348 1.69531C204.153 0.937735 205.111 0.558947 206.224 0.558947C207.36 0.558947 208.325 0.937735 209.118 1.69531C209.923 2.44105 210.326 3.33475 210.326 4.37642C210.326 5.42992 209.923 6.33546 209.118 7.09304C208.325 7.83878 207.36 8.21165 206.224 8.21165ZM228.405 39.5327C225.647 39.5327 223.262 38.9467 221.25 37.7749C219.249 36.5911 217.705 34.9458 216.616 32.8388C215.527 30.7199 214.982 28.2637 214.982 25.4702C214.982 22.6529 215.527 20.1908 216.616 18.0838C217.705 15.965 219.249 14.3196 221.25 13.1477C223.262 11.964 225.647 11.3722 228.405 11.3722C231.163 11.3722 233.543 11.964 235.543 13.1477C237.555 14.3196 239.106 15.965 240.195 18.0838C241.284 20.1908 241.829 22.6529 241.829 25.4702C241.829 28.2637 241.284 30.7199 240.195 32.8388C239.106 34.9458 237.555 36.5911 235.543 37.7749C233.543 38.9467 231.163 39.5327 228.405 39.5327ZM228.441 33.6733C229.696 33.6733 230.743 33.3182 231.584 32.608C232.424 31.8859 233.057 30.9034 233.483 29.6605C233.921 28.4176 234.14 27.0031 234.14 25.4169C234.14 23.8307 233.921 22.4162 233.483 21.1733C233.057 19.9304 232.424 18.9479 231.584 18.2259C230.743 17.5038 229.696 17.1428 228.441 17.1428C227.174 17.1428 226.109 17.5038 225.245 18.2259C224.393 18.9479 223.747 19.9304 223.309 21.1733C222.883 22.4162 222.67 23.8307 222.67 25.4169C222.67 27.0031 222.883 28.4176 223.309 29.6605C223.747 30.9034 224.393 31.8859 225.245 32.608C226.109 33.3182 227.174 33.6733 228.441 33.6733Z" fill="#4CAF4F"/>
</svg>
