<svg width="152" height="32" viewBox="0 0 152 32" fill="none" xmlns="http://www.w3.org/2000/svg">
<path d="M0.0227273 25V1.72727H4.94318V11.9886H5.25L13.625 1.72727H19.5227L10.8864 12.1477L19.625 25H13.7386L7.36364 15.4318L4.94318 18.3864V25H0.0227273ZM26.9716 25.3295C25.858 25.3295 24.8655 25.1364 23.9943 24.75C23.1231 24.3561 22.4337 23.7765 21.9261 23.0114C21.4261 22.2386 21.1761 21.2765 21.1761 20.125C21.1761 19.1553 21.3542 18.3409 21.7102 17.6818C22.0663 17.0227 22.5511 16.4924 23.1648 16.0909C23.7784 15.6894 24.4754 15.3864 25.2557 15.1818C26.0436 14.9773 26.8693 14.8333 27.733 14.75C28.7481 14.6439 29.5663 14.5455 30.1875 14.4545C30.8087 14.3561 31.2595 14.2121 31.5398 14.0227C31.8201 13.8333 31.9602 13.553 31.9602 13.1818V13.1136C31.9602 12.3939 31.733 11.8371 31.2784 11.4432C30.8314 11.0492 30.1951 10.8523 29.3693 10.8523C28.4981 10.8523 27.8049 11.0455 27.2898 11.4318C26.7746 11.8106 26.4337 12.2879 26.267 12.8636L21.7898 12.5C22.017 11.4394 22.464 10.5227 23.1307 9.75C23.7973 8.9697 24.6572 8.37121 25.7102 7.95454C26.7708 7.5303 27.9981 7.31818 29.392 7.31818C30.3617 7.31818 31.2898 7.43182 32.1761 7.65909C33.0701 7.88636 33.8617 8.23864 34.5511 8.71591C35.2481 9.19318 35.7973 9.80682 36.1989 10.5568C36.6004 11.2992 36.8011 12.1894 36.8011 13.2273V25H32.2102V22.5795H32.0739C31.7936 23.125 31.4186 23.6061 30.9489 24.0227C30.4792 24.4318 29.9148 24.7538 29.2557 24.9886C28.5966 25.2159 27.8352 25.3295 26.9716 25.3295ZM28.358 21.9886C29.0701 21.9886 29.6989 21.8485 30.2443 21.5682C30.7898 21.2803 31.2178 20.8939 31.5284 20.4091C31.839 19.9242 31.9943 19.375 31.9943 18.7614V16.9091C31.8428 17.0076 31.6345 17.0985 31.3693 17.1818C31.1117 17.2576 30.8201 17.3295 30.4943 17.3977C30.1686 17.4583 29.8428 17.5152 29.517 17.5682C29.1913 17.6136 28.8958 17.6553 28.6307 17.6932C28.0625 17.7765 27.5663 17.9091 27.142 18.0909C26.7178 18.2727 26.3883 18.5189 26.1534 18.8295C25.9186 19.1326 25.8011 19.5114 25.8011 19.9659C25.8011 20.625 26.0398 21.1288 26.517 21.4773C27.0019 21.8182 27.6155 21.9886 28.358 21.9886ZM45.5341 25.3295C44.4205 25.3295 43.428 25.1364 42.5568 24.75C41.6856 24.3561 40.9962 23.7765 40.4886 23.0114C39.9886 22.2386 39.7386 21.2765 39.7386 20.125C39.7386 19.1553 39.9167 18.3409 40.2727 17.6818C40.6288 17.0227 41.1136 16.4924 41.7273 16.0909C42.3409 15.6894 43.0379 15.3864 43.8182 15.1818C44.6061 14.9773 45.4318 14.8333 46.2955 14.75C47.3106 14.6439 48.1288 14.5455 48.75 14.4545C49.3712 14.3561 49.822 14.2121 50.1023 14.0227C50.3826 13.8333 50.5227 13.553 50.5227 13.1818V13.1136C50.5227 12.3939 50.2955 11.8371 49.8409 11.4432C49.3939 11.0492 48.7576 10.8523 47.9318 10.8523C47.0606 10.8523 46.3674 11.0455 45.8523 11.4318C45.3371 11.8106 44.9962 12.2879 44.8295 12.8636L40.3523 12.5C40.5795 11.4394 41.0265 10.5227 41.6932 9.75C42.3598 8.9697 43.2197 8.37121 44.2727 7.95454C45.3333 7.5303 46.5606 7.31818 47.9545 7.31818C48.9242 7.31818 49.8523 7.43182 50.7386 7.65909C51.6326 7.88636 52.4242 8.23864 53.1136 8.71591C53.8106 9.19318 54.3598 9.80682 54.7614 10.5568C55.1629 11.2992 55.3636 12.1894 55.3636 13.2273V25H50.7727V22.5795H50.6364C50.3561 23.125 49.9811 23.6061 49.5114 24.0227C49.0417 24.4318 48.4773 24.7538 47.8182 24.9886C47.1591 25.2159 46.3977 25.3295 45.5341 25.3295ZM46.9205 21.9886C47.6326 21.9886 48.2614 21.8485 48.8068 21.5682C49.3523 21.2803 49.7803 20.8939 50.0909 20.4091C50.4015 19.9242 50.5568 19.375 50.5568 18.7614V16.9091C50.4053 17.0076 50.197 17.0985 49.9318 17.1818C49.6742 17.2576 49.3826 17.3295 49.0568 17.3977C48.7311 17.4583 48.4053 17.5152 48.0795 17.5682C47.7538 17.6136 47.4583 17.6553 47.1932 17.6932C46.625 17.7765 46.1288 17.9091 45.7045 18.0909C45.2803 18.2727 44.9508 18.5189 44.7159 18.8295C44.4811 19.1326 44.3636 19.5114 44.3636 19.9659C44.3636 20.625 44.6023 21.1288 45.0795 21.4773C45.5644 21.8182 46.178 21.9886 46.9205 21.9886ZM59.1193 7.54545H63.9602V25.8636C63.9602 27.2121 63.6951 28.303 63.1648 29.1364C62.6345 29.9697 61.8731 30.5795 60.8807 30.9659C59.8958 31.3523 58.7178 31.5455 57.3466 31.5455C57.1799 31.5455 57.0208 31.5417 56.8693 31.5341C56.7102 31.5341 56.5436 31.5303 56.3693 31.5227V27.7386C56.4981 27.7462 56.6117 27.75 56.7102 27.75C56.8011 27.7576 56.8996 27.7614 57.0057 27.7614C57.786 27.7614 58.3314 27.5947 58.642 27.2614C58.9602 26.9356 59.1193 26.4432 59.1193 25.7841V7.54545ZM61.5284 5.29545C60.8163 5.29545 60.2027 5.05682 59.6875 4.57954C59.1723 4.0947 58.9148 3.51515 58.9148 2.84091C58.9148 2.17424 59.1723 1.60227 59.6875 1.125C60.2027 0.640151 60.8163 0.397726 61.5284 0.397726C62.2557 0.397726 62.8731 0.640151 63.3807 1.125C63.8958 1.60227 64.1534 2.17424 64.1534 2.84091C64.1534 3.51515 63.8958 4.0947 63.3807 4.57954C62.8731 5.05682 62.2557 5.29545 61.5284 5.29545Z" fill="#6AB960"/>
<path d="M72.2244 19.9773L72.2358 14.1705H72.9403L78.5312 7.54545H84.0881L76.5767 16.3182H75.429L72.2244 19.9773ZM67.8381 25V1.72727H72.679V25H67.8381ZM78.7472 25L73.6108 17.3977L76.8381 13.9773L84.4176 25H78.7472ZM91.304 14.9091V25H86.4631V1.72727H91.1676V10.625H91.3722C91.7661 9.5947 92.4025 8.78788 93.2812 8.20454C94.16 7.61364 95.2623 7.31818 96.5881 7.31818C97.8002 7.31818 98.857 7.58333 99.7585 8.11364C100.668 8.63636 101.372 9.39015 101.872 10.375C102.38 11.3523 102.63 12.5227 102.622 13.8864V25H97.7812V14.75C97.7888 13.6742 97.5161 12.8371 96.9631 12.2386C96.4176 11.6402 95.6525 11.3409 94.6676 11.3409C94.0085 11.3409 93.4252 11.4811 92.9176 11.7614C92.4176 12.0417 92.0237 12.4508 91.7358 12.9886C91.4555 13.5189 91.3116 14.1591 91.304 14.9091ZM114.318 25.3409C112.553 25.3409 111.027 24.9659 109.739 24.2159C108.458 23.4583 107.47 22.4053 106.773 21.0568C106.076 19.7008 105.727 18.1288 105.727 16.3409C105.727 14.5379 106.076 12.9621 106.773 11.6136C107.47 10.2576 108.458 9.20454 109.739 8.45454C111.027 7.69697 112.553 7.31818 114.318 7.31818C116.083 7.31818 117.606 7.69697 118.886 8.45454C120.174 9.20454 121.167 10.2576 121.864 11.6136C122.561 12.9621 122.909 14.5379 122.909 16.3409C122.909 18.1288 122.561 19.7008 121.864 21.0568C121.167 22.4053 120.174 23.4583 118.886 24.2159C117.606 24.9659 116.083 25.3409 114.318 25.3409ZM114.341 21.5909C115.144 21.5909 115.814 21.3636 116.352 20.9091C116.89 20.447 117.295 19.8182 117.568 19.0227C117.848 18.2273 117.989 17.322 117.989 16.3068C117.989 15.2917 117.848 14.3864 117.568 13.5909C117.295 12.7955 116.89 12.1667 116.352 11.7045C115.814 11.2424 115.144 11.0114 114.341 11.0114C113.53 11.0114 112.848 11.2424 112.295 11.7045C111.75 12.1667 111.337 12.7955 111.057 13.5909C110.784 14.3864 110.648 15.2917 110.648 16.3068C110.648 17.322 110.784 18.2273 111.057 19.0227C111.337 19.8182 111.75 20.447 112.295 20.9091C112.848 21.3636 113.53 21.5909 114.341 21.5909ZM126.057 7.54545H130.898V25.8636C130.898 27.2121 130.633 28.303 130.102 29.1364C129.572 29.9697 128.811 30.5795 127.818 30.9659C126.833 31.3523 125.655 31.5455 124.284 31.5455C124.117 31.5455 123.958 31.5417 123.807 31.5341C123.648 31.5341 123.481 31.5303 123.307 31.5227V27.7386C123.436 27.7462 123.549 27.75 123.648 27.75C123.739 27.7576 123.837 27.7614 123.943 27.7614C124.723 27.7614 125.269 27.5947 125.58 27.2614C125.898 26.9356 126.057 26.4432 126.057 25.7841V7.54545ZM128.466 5.29545C127.754 5.29545 127.14 5.05682 126.625 4.57954C126.11 4.0947 125.852 3.51515 125.852 2.84091C125.852 2.17424 126.11 1.60227 126.625 1.125C127.14 0.640151 127.754 0.397726 128.466 0.397726C129.193 0.397726 129.811 0.640151 130.318 1.125C130.833 1.60227 131.091 2.17424 131.091 2.84091C131.091 3.51515 130.833 4.0947 130.318 4.57954C129.811 5.05682 129.193 5.29545 128.466 5.29545ZM142.662 25.3409C140.897 25.3409 139.37 24.9659 138.082 24.2159C136.802 23.4583 135.813 22.4053 135.116 21.0568C134.42 19.7008 134.071 18.1288 134.071 16.3409C134.071 14.5379 134.42 12.9621 135.116 11.6136C135.813 10.2576 136.802 9.20454 138.082 8.45454C139.37 7.69697 140.897 7.31818 142.662 7.31818C144.427 7.31818 145.95 7.69697 147.23 8.45454C148.518 9.20454 149.51 10.2576 150.207 11.6136C150.904 12.9621 151.253 14.5379 151.253 16.3409C151.253 18.1288 150.904 19.7008 150.207 21.0568C149.51 22.4053 148.518 23.4583 147.23 24.2159C145.95 24.9659 144.427 25.3409 142.662 25.3409ZM142.685 21.5909C143.488 21.5909 144.158 21.3636 144.696 20.9091C145.234 20.447 145.639 19.8182 145.912 19.0227C146.192 18.2273 146.332 17.322 146.332 16.3068C146.332 15.2917 146.192 14.3864 145.912 13.5909C145.639 12.7955 145.234 12.1667 144.696 11.7045C144.158 11.2424 143.488 11.0114 142.685 11.0114C141.874 11.0114 141.192 11.2424 140.639 11.7045C140.094 12.1667 139.681 12.7955 139.401 13.5909C139.128 14.3864 138.991 15.2917 138.991 16.3068C138.991 17.322 139.128 18.2273 139.401 19.0227C139.681 19.8182 140.094 20.447 140.639 20.9091C141.192 21.3636 141.874 21.5909 142.685 21.5909Z" fill="#263238"/>
</svg>
