<svg width="248" height="194" viewBox="0 0 248 194" fill="none" xmlns="http://www.w3.org/2000/svg">
<path d="M59.6305 64.5035L61.4943 63.6138L78.0737 67.6842L99.0566 86.4922L106.85 84.4058L117.059 73.7695C117.059 73.7695 135.482 73.8308 143.89 81.3581C144.525 81.3683 149.246 84.416 151.632 87.6581C154.018 90.9001 155.707 92.0967 158.052 95.8092C160.397 99.5217 163.06 103.592 164.473 107.509C165.886 111.426 168.631 119.373 169.317 122.155C170.003 124.937 170.761 130.623 170.761 130.623L155.298 166.06H39.1289L59.6305 64.5035Z" fill="white"/>
<path d="M119.241 161.417C118.647 161.417 118.053 161.417 117.449 161.417C117.397 161.509 117.346 161.601 117.295 161.693C117.694 162.01 118.083 162.368 118.514 162.645C124.351 166.5 129.799 170.816 134.233 176.257C135.963 178.374 137.346 180.777 138.882 183.048C138.923 183.109 138.974 183.171 138.974 183.232C138.995 183.938 139.292 184.93 138.943 185.277C138.585 185.646 137.51 185.615 136.906 185.37C135.38 184.735 133.946 183.897 132.482 183.12C131.816 182.762 131.171 182.363 130.515 181.984C130.444 182.056 130.372 182.117 130.3 182.189C130.669 182.751 131.058 183.304 131.386 183.887C132.605 186.065 133.844 188.233 134.96 190.452C135.175 190.892 135.103 191.915 134.827 192.058C134.335 192.324 133.465 192.365 132.983 192.089C131.068 191.046 129.205 189.89 127.402 188.673C125.969 187.712 124.637 186.587 123.265 185.543C122.999 185.349 122.722 185.175 122.446 184.991C122.374 185.052 122.303 185.114 122.231 185.175C122.722 186.116 123.265 187.037 123.695 188.008C124.177 189.062 124.668 190.135 124.934 191.25C125.057 191.751 124.801 192.498 124.453 192.907C124.248 193.142 123.419 193.112 123.05 192.897C121.197 191.823 119.394 190.657 117.602 189.491C116.64 188.867 115.718 188.182 114.591 187.681C114.888 188.479 115.196 189.276 115.482 190.084C115.605 190.442 115.738 190.821 115.769 191.199C115.851 192.437 115.206 192.948 114.079 192.437C111.775 191.393 109.451 190.371 107.249 189.133C102.6 186.525 98.0324 183.784 93.0043 181.943C88.8774 180.43 84.6481 179.397 80.3061 178.732C72.8407 177.597 65.3241 177.218 57.7973 177.014C50.2501 176.799 42.6925 176.656 35.1452 176.421C31.9399 176.318 28.7244 176.134 25.6318 175.112C21.6072 173.782 18.5658 171.205 16.19 167.789C15.4424 166.715 14.7665 165.6 14.1419 164.455C13.8039 163.841 13.4353 163.708 12.7799 163.8C11.3155 164.015 9.84085 164.23 8.35597 164.281C7.34215 164.322 6.29762 164.189 5.32476 163.923C4.78202 163.78 4.17782 163.299 3.90132 162.808C2.22187 159.812 1.2183 156.539 0.542426 153.195C0.23521 151.691 0.173767 150.137 0.0303988 148.603C-0.194893 145.995 0.849644 143.857 2.5803 142.016C3.30738 141.249 4.07541 140.492 4.94586 139.909C5.77535 139.347 6.09281 138.713 6.09281 137.731C6.11329 130.746 7.24999 123.904 8.82703 117.113C10.6908 109.095 13.1485 101.271 16.5996 93.7945C20.4296 85.49 25.2529 77.8605 32.3188 71.857C37.4391 67.5002 43.2558 64.565 49.9633 63.4502C55.0631 62.6014 60.1117 62.7343 65.1193 63.8695C69.277 64.8105 73.3732 66.0173 77.5104 67.0707C77.9303 67.173 78.5037 67.1116 78.8621 66.8968C80.8795 65.6593 82.9481 64.4729 84.7914 63.0104C85.6619 62.315 86.2456 61.1286 86.6859 60.0445C88.1094 56.557 89.3997 53.0184 90.7514 49.5002C91.0484 48.7332 90.4852 48.6514 89.9936 48.4264C88.3346 47.6798 86.5938 47.0354 85.0577 46.0741C82.7433 44.6218 80.9922 42.6173 80.05 39.9684C78.2375 34.9059 82.2825 29.332 87.5973 29.6491C88.3551 29.69 89.1027 29.9355 90.1063 30.1298C90.0243 28.8105 90.0448 27.6241 89.8503 26.4684C89.3894 23.707 88.4678 21.0786 87.1672 18.5934C84.5354 13.5514 87.1058 8.4275 91.2737 5.96273C94.3971 4.12182 97.6331 4.08091 100.869 5.80932C101.146 5.9525 101.432 6.08545 101.76 6.23886C101.903 6.00364 102.077 5.81954 102.159 5.59454C103.245 2.58773 105.529 1.13545 108.498 0.255909C111.745 -0.705454 116.22 1.14568 117.971 4.07068C118.391 4.77636 118.38 5.165 117.705 5.71727C116.199 6.965 115.339 8.68318 114.735 10.5139C114.653 10.7695 114.868 11.1173 114.95 11.4241C115.196 11.2298 115.534 11.0866 115.687 10.8411C116.517 9.50136 117.07 7.92636 118.135 6.83205C121.186 3.7025 128.846 3.59 131.529 9.78773C133.618 14.6048 132.267 20.557 127.484 22.8991C127.187 23.0423 126.88 23.5536 126.88 23.8809C126.911 28.6468 126.921 33.4536 128.263 38.0559C128.969 40.4593 130.259 42.6991 131.345 44.99C132.277 46.9741 133.209 48.948 133.311 51.1877C133.495 55.3707 131.15 58.0911 127.832 60.0445C124.771 61.8548 121.34 62.182 117.868 61.5684C116.035 61.2411 114.264 60.6173 112.461 60.1264C112.267 60.0752 112.062 60.0445 111.826 60.0036C111.755 60.1775 111.652 60.3002 111.663 60.423C111.704 63.0002 111.704 65.5775 111.857 68.1445C111.898 68.7889 112.41 69.4536 112.84 70.0059C113.168 70.4457 113.752 70.6911 114.131 71.1002C115.841 72.9514 117.899 73.3502 120.398 73.3298C132.287 73.2275 142.302 77.7582 150.679 86.0627C157.038 92.373 161.575 99.8798 165.088 108.051C167.801 114.362 169.686 120.917 170.812 127.688C170.884 128.117 170.71 128.577 170.648 129.027C170.556 129.017 170.474 129.017 170.382 129.007C170.085 127.545 169.798 126.072 169.501 124.609C168.221 118.228 166.194 112.081 163.459 106.17C160.1 98.9082 155.871 92.2298 150.177 86.5536C144.903 81.307 138.78 77.4616 131.57 75.4468C127.249 74.24 122.825 73.8514 118.339 74.0661C117.633 74.0968 117.449 74.4036 117.479 75.0684C117.735 80.765 117.397 86.4411 116.271 92.0355C115.964 93.5695 115.37 95.0832 114.653 96.4741C113.834 98.0695 112.39 98.3661 111.192 97.0775C109.973 95.7582 109.195 95.9014 107.669 96.7298C104.781 98.3048 101.658 98.0593 98.7186 96.5661C97.9812 96.1877 97.6433 96.3514 97.121 96.8934C96.2199 97.8241 95.288 98.7752 94.1922 99.4502C92.7893 100.32 91.796 100.197 90.8333 98.8877C89.3177 96.8218 87.8226 94.6843 86.7371 92.3832C84.8631 88.4048 83.2144 84.3139 81.6271 80.2025C80.1832 76.4593 78.9543 72.6343 77.6435 68.84C77.408 68.1343 77.1212 67.582 76.3122 67.3877C71.7142 66.2832 67.1265 65.1684 62.5387 64.0536C62.4465 64.0332 62.3339 64.0639 62.0779 64.0843C62.3953 64.3605 62.5899 64.6059 62.8459 64.7491C67.2186 67.1525 69.8505 71.0082 71.7245 75.457C74.5304 82.1252 75.2165 89.1718 75.0527 96.3105C74.9093 102.283 74.2129 108.195 73.1479 114.085C72.001 120.406 70.5161 126.634 68.6318 132.771C68.4373 133.395 68.4782 133.712 69.1439 133.988C70.7721 134.642 71.5914 135.91 71.3865 137.659C71.2125 139.193 70.9564 140.727 70.598 142.231C70.2498 143.704 70.2703 143.837 71.7245 144.113C72.0317 144.174 72.3389 144.266 72.6461 144.348C73.4756 144.573 74.131 144.46 74.8786 143.878C77.7152 141.638 81.0639 141.229 84.5252 141.628C87.9455 142.016 91.1815 143.07 93.8236 145.36C95.0729 146.445 96.056 147.846 97.2951 149.267M20.6446 127.309C20.6344 127.156 20.6344 127.003 20.6241 126.849C20.9006 126.778 21.1771 126.685 21.4639 126.655C29.0521 125.714 36.5687 126.552 44.0545 127.739C48.0279 128.363 51.9705 129.201 55.8824 130.112C59.2105 130.889 62.4977 131.84 65.7747 132.832C67.6795 133.405 67.6487 133.517 68.2427 131.656C68.2529 131.625 68.2632 131.584 68.2734 131.554C70.3318 124.364 72.0624 117.103 73.1172 109.688C74.3256 101.189 74.9298 92.7002 73.4756 84.1809C72.6973 79.6195 71.3046 75.2832 68.765 71.3764C65.4675 66.3036 60.849 63.4195 54.7047 63.6241C49.8712 63.7877 45.2117 64.9434 40.839 67.1014C34.3158 70.323 29.216 75.1605 24.9559 80.9491C20.6037 86.8707 17.255 93.3445 14.7768 100.238C13.2817 104.41 11.8173 108.614 10.6703 112.889C9.53363 117.133 8.62222 121.47 7.94634 125.806C7.33191 129.692 7.16806 133.66 6.81988 137.588C6.7994 137.843 6.89157 138.109 6.94277 138.447C7.30119 138.324 7.5572 138.232 7.82346 138.15C11.039 137.117 14.2238 135.951 17.4803 135.082C24.3722 133.241 31.4484 132.587 38.5451 132.229C45.8261 131.86 53.1072 131.85 60.3677 132.566C60.7364 132.607 61.1153 132.525 61.4942 132.505C54.8276 130.367 48.0586 128.987 41.2179 127.995C34.3977 127.013 27.5365 126.747 20.6446 127.309ZM105.406 178.241C105.488 178.139 105.569 178.037 105.662 177.924C105.979 178.139 106.338 178.313 106.604 178.568C109.533 181.371 112.328 184.326 115.421 186.945C117.684 188.867 120.316 190.381 122.815 192.027C123.173 192.263 123.726 192.181 124.197 192.242C124.197 191.772 124.32 191.25 124.166 190.831C122.856 187.384 121.074 184.163 118.718 181.34C117.049 179.346 115.011 177.668 113.147 175.848C112.881 175.592 112.666 175.285 112.431 175.009C112.513 174.917 112.605 174.825 112.687 174.733C112.984 174.927 113.322 175.081 113.578 175.326C115.062 176.676 116.568 178.016 118.002 179.428C119.026 180.44 119.804 181.739 120.92 182.629C124.146 185.206 127.464 187.66 130.792 190.105C131.632 190.718 132.625 191.168 133.608 191.526C134.397 191.823 134.704 191.455 134.386 190.667C134.007 189.726 133.598 188.775 133.086 187.896C129.625 181.974 125.508 176.584 120.132 172.238C119.814 171.982 119.558 171.634 119.271 171.327C119.343 171.235 119.415 171.154 119.497 171.062C119.804 171.225 120.162 171.338 120.408 171.573C122.753 173.813 125.078 176.073 127.402 178.343C127.853 178.783 128.181 179.397 128.703 179.714C131.335 181.35 133.997 182.946 136.691 184.47C137.172 184.746 137.878 184.643 138.472 184.715C138.349 184.122 138.38 183.426 138.063 182.966C136.158 180.266 134.356 177.464 132.174 174.989C127.976 170.213 122.958 166.367 117.623 162.931C111.642 159.085 105.344 155.843 98.7595 153.174C98.2475 152.97 97.756 152.673 97.6126 153.583C97.3259 155.485 96.2096 156.866 94.6736 157.93C93.076 159.034 91.3044 159.617 89.3689 159.853C83.4192 160.568 78.1351 159.28 73.9262 154.81C71.745 152.499 70.6902 148.746 72.81 145.902C73.3937 145.125 72.6769 145.033 72.1546 144.931C66.6656 143.878 61.146 143.141 55.5342 143.131C50.035 143.11 44.5768 143.52 39.2312 144.788C35.5344 145.667 31.858 146.7 28.2534 147.907C22.6825 149.768 17.3676 152.202 12.5546 155.629C11.9094 156.089 11.7763 156.559 12.0426 157.245C12.8618 159.3 13.5479 161.427 14.5105 163.422C18.0845 170.837 23.6963 175.316 32.2574 175.541C39.989 175.746 47.7206 176.042 55.4522 176.298C59.9683 176.451 64.4947 176.605 69.0107 176.789C70.5161 176.85 70.5468 176.901 70.7414 175.449C71.4787 169.701 72.8407 164.097 74.643 158.584C74.9605 157.603 75.2575 157.602 76.005 158.114C78.473 159.781 81.1867 160.804 84.177 161.059C85.6004 161.182 87.0239 161.264 88.519 161.376C88.3961 161.796 88.3244 162.133 88.2015 162.46C86.3275 167.318 85.0474 172.32 84.3204 177.464C84.1975 178.323 84.3613 178.701 85.3034 178.906C89.7888 179.898 94.182 181.258 98.2577 183.406C103.122 185.973 107.894 188.724 112.717 191.363C113.465 191.772 114.376 192.447 115.134 191.68C115.81 190.984 115.134 190.156 114.755 189.471C112.523 185.492 109.543 182.117 106.163 179.08C105.866 178.824 105.651 178.517 105.406 178.241ZM94.9193 47.8536C94.95 48.0173 94.9705 48.1707 95.0013 48.3343C94.2844 48.457 93.5573 48.7025 92.8405 48.6923C91.97 48.682 91.6014 49.0707 91.3147 49.8173C89.7376 53.9286 88.1196 58.0093 86.563 62.1207C86.3992 62.5605 86.3275 63.1843 86.5016 63.5832C87.7919 66.4775 88.99 69.423 90.5364 72.1741C92.4513 75.5798 94.8681 78.6275 98.3089 80.6832C100.767 82.1559 103.378 82.5752 106.143 81.7366C109.082 80.8468 110.075 78.382 110.761 75.7639C111.56 72.7366 111.263 69.6582 110.884 66.6105C110.833 66.2218 110.424 65.7616 110.055 65.5571C107.177 63.982 104.976 61.8445 104.177 58.5718C103.859 57.2627 103.665 55.9025 104.494 54.5934C104.72 54.7161 104.853 54.7673 104.945 54.8491C108.57 58.0093 112.779 60.0139 117.5 60.8116C121.043 61.415 124.586 61.2104 127.751 59.257C130.731 57.4059 133.311 54.307 132.359 50.073C131.97 48.3445 131.232 46.6673 130.464 45.0514C129.205 42.4127 127.638 39.8968 127.136 36.9718C126.747 34.7218 126.573 32.4309 126.317 30.1605C125.999 27.348 125.999 27.348 123.224 26.7241C120.807 26.182 120.674 25.865 122.057 23.932C122.067 23.9116 122.047 23.8707 122.006 23.6866C119.804 23.5843 117.582 23.5741 115.247 24.3002C115.687 24.5661 115.964 24.7195 116.23 24.8832C117.53 25.6911 117.5 26.6934 116.158 27.4298C115.441 27.8184 114.714 28.1661 114.018 28.5752C112.646 29.373 111.335 30.2627 109.932 30.9991C108.826 31.582 108.119 31.0605 108.232 29.8332C108.293 29.1173 108.519 28.4218 108.662 27.7059C108.222 27.7877 107.935 27.9718 107.73 28.2275C106.727 29.4139 105.631 30.5389 104.781 31.8173C103.573 33.6377 102.6 35.6014 101.443 37.4525C100.357 39.1911 99.2101 39.365 97.715 37.9741C96.4964 36.8491 95.4723 35.5298 94.2742 34.3843C93.1784 33.3411 92.0827 32.2468 90.7924 31.49C88.222 29.9559 85.539 29.823 83.0813 31.7968C80.7771 33.6582 79.8657 36.0718 80.5313 39.0377C80.9922 41.0934 82.1494 42.7093 83.665 44.0695C86.6347 46.7184 89.9424 48.5082 94.1308 47.8127C94.3868 47.782 94.6633 47.8434 94.9193 47.8536ZM3.83988 161.683C4.89466 160.671 5.60126 159.893 6.41026 159.239C12.3395 154.432 18.8013 150.535 25.9902 147.897C32.0116 145.688 38.1355 143.918 44.5358 143.11C50.2705 142.384 55.995 142.077 61.7502 142.722C63.9519 142.967 66.1536 143.274 68.3553 143.581C69.1336 143.693 69.6149 143.591 69.7685 142.681C69.9938 141.331 70.4035 140.012 70.6287 138.662C71.0691 136.054 70.1167 134.591 67.4849 134.274C62.723 133.691 57.9509 133.108 53.1584 132.852C43.9624 132.362 34.7971 132.904 25.683 134.223C20.6753 134.949 15.7599 135.992 10.9775 137.67C8.03851 138.702 5.335 140.073 3.18449 142.384C1.60745 144.072 0.767719 145.995 0.757479 148.388C0.747238 150.525 0.941808 152.622 1.50504 154.657C2.16043 156.938 3.00016 159.167 3.83988 161.683ZM85.5287 63.4707C83.1529 65.015 80.8488 66.4877 78.5754 68.0218C78.3808 68.1548 78.2989 68.7173 78.3911 69.0036C79.5585 72.4605 80.6747 75.948 81.9957 79.3536C83.7059 83.7411 85.5083 88.1082 87.454 92.4036C88.3654 94.4082 89.6147 96.2798 90.8845 98.09C91.8881 99.5116 93.0351 99.5934 94.4483 98.5502C95.1753 98.0082 95.841 97.3536 96.4042 96.6377C99.3023 92.9252 101.115 88.64 102.733 84.273C103.214 82.9741 103.194 82.9332 101.811 82.7286C99.7221 82.4218 97.93 81.4707 96.312 80.1923C92.4718 77.165 89.9629 73.1457 87.8738 68.8298C87.0546 67.1116 86.348 65.3525 85.5287 63.4707ZM87.3106 156.958C88.6623 156.754 90.0653 156.702 91.3556 156.304C92.5742 155.925 93.8031 155.322 94.7862 154.524C97.0494 152.693 96.8958 149.605 94.5711 147.058C90.7002 142.814 82.5692 141.014 77.2441 143.233C74.2437 144.481 72.7793 147.058 73.9467 149.676C74.5611 151.057 75.6773 152.366 76.8652 153.327C79.8657 155.741 83.4397 156.764 87.3106 156.958ZM112.338 70.5991C112.246 70.6605 112.144 70.7218 112.052 70.7934C112.031 71.1002 112.031 71.407 111.99 71.7139C111.714 73.5139 111.601 75.3752 111.11 77.1139C110.301 79.9468 108.631 82.0946 105.477 82.6161C104.679 82.7491 104.74 83.2298 104.955 83.7923C105.764 85.8889 106.45 88.057 107.433 90.0718C108.447 92.1479 109.625 94.173 110.966 96.0548C112.113 97.6502 113.485 97.4559 114.264 95.6559C114.94 94.0911 115.482 92.4139 115.769 90.7264C116.66 85.5718 116.875 80.3457 116.691 75.1195C116.68 74.7411 116.66 74.2298 116.435 74.0252C115.114 72.8389 113.711 71.7343 112.338 70.5991ZM11.0288 156.815C8.84751 158.145 6.92229 159.474 5.38621 161.295C4.33143 162.542 4.5772 163.197 6.17473 163.483C6.52291 163.545 6.88132 163.575 7.2295 163.555C8.98064 163.432 10.7318 163.279 12.4931 163.146C13.2407 163.095 13.2509 162.696 13.0257 162.133C12.5443 160.926 12.0733 159.72 11.6125 158.503C11.4179 157.981 11.254 157.459 11.0288 156.815Z" fill="black"/>
<path d="M134.007 101.68C134.171 101.905 134.386 102.109 134.499 102.355C136.352 106.364 137.674 110.557 138.769 114.822C140.357 121.009 141.391 127.309 142.016 133.66C142.722 140.789 143.152 147.938 142.671 155.117C142.548 156.948 142.405 158.779 142.251 160.599C142.22 160.926 142.056 161.243 141.79 161.55C143.009 141.106 141.411 121.071 133.69 101.864C133.803 101.792 133.905 101.741 134.007 101.68Z" fill="black"/>
<path d="M20.6446 127.309C27.5365 126.747 34.3976 127.013 41.2179 128.005C48.0585 128.997 54.8275 130.378 61.4941 132.515C61.1152 132.536 60.7363 132.607 60.3677 132.576C53.0969 131.861 45.8159 131.861 38.5451 132.239C31.4484 132.607 24.3722 133.251 17.4803 135.092C14.2238 135.962 11.039 137.128 7.82342 138.161C7.56741 138.242 7.30115 138.334 6.94274 138.457C6.89153 138.12 6.78913 137.854 6.81985 137.598C7.16803 133.671 7.33188 129.703 7.94631 125.816C8.62219 121.47 9.53359 117.144 10.6703 112.899C11.8172 108.624 13.2816 104.421 14.7768 100.248C17.255 93.3447 20.6036 86.881 24.9559 80.9594C29.2159 75.1606 34.326 70.3333 40.839 67.1117C45.2117 64.9537 49.8711 63.7981 54.7047 63.6344C60.849 63.4299 65.4675 66.3242 68.7649 71.3867C71.3046 75.2935 72.6973 79.6299 73.4756 84.1912C74.94 92.7208 74.3256 101.209 73.1172 109.698C72.0624 117.113 70.342 124.374 68.2734 131.564C68.2632 131.595 68.2529 131.636 68.2427 131.666C67.6487 133.528 67.6794 133.415 65.7747 132.842C62.508 131.85 59.2105 130.889 55.8823 130.122C51.9704 129.212 48.0278 128.373 44.0545 127.749C36.5686 126.563 29.0521 125.724 21.4638 126.665C21.1771 126.696 20.9006 126.798 20.6241 126.859C20.6344 127.003 20.6344 127.156 20.6446 127.309Z" fill="white"/>
<path d="M105.406 178.241C105.651 178.517 105.856 178.834 106.133 179.08C109.512 182.117 112.492 185.492 114.725 189.471C115.103 190.156 115.779 190.984 115.103 191.68C114.346 192.457 113.434 191.772 112.687 191.363C107.863 188.724 103.091 185.983 98.227 183.406C94.1512 181.248 89.7683 179.898 85.2727 178.906C84.3306 178.701 84.1667 178.323 84.2896 177.464C85.0167 172.309 86.2967 167.308 88.1708 162.46C88.2937 162.143 88.3653 161.796 88.4882 161.376C86.9829 161.264 85.5594 161.182 84.1462 161.059C81.1662 160.804 78.4422 159.781 75.9743 158.114C75.2267 157.602 74.9297 157.602 74.6123 158.584C72.8202 164.097 71.4582 169.701 70.7106 175.449C70.5263 176.901 70.4853 176.85 68.98 176.789C64.4639 176.605 59.9376 176.451 55.4215 176.298C47.6899 176.032 39.9583 175.735 32.2266 175.541C23.6655 175.316 18.0537 170.837 14.4798 163.422C13.5172 161.427 12.831 159.31 12.0118 157.245C11.7455 156.57 11.8787 156.089 12.5238 155.629C17.3369 152.202 22.6517 149.758 28.2226 147.907C31.8273 146.71 35.5036 145.677 39.2005 144.788C44.546 143.509 50.0042 143.11 55.5034 143.131C61.1152 143.151 66.6349 143.877 72.1238 144.931C72.6461 145.033 73.3629 145.125 72.7792 145.902C70.6594 148.735 71.7142 152.499 73.8954 154.81C78.1043 159.28 83.3884 160.579 89.3382 159.852C91.2737 159.617 93.0555 159.034 94.6428 157.93C96.1789 156.866 97.2849 155.485 97.5818 153.583C97.7252 152.673 98.2167 152.969 98.7288 153.174C105.313 155.854 111.601 159.096 117.592 162.931C122.937 166.357 127.955 170.213 132.144 174.989C134.315 177.464 136.127 180.266 138.032 182.966C138.349 183.416 138.319 184.122 138.442 184.715C137.837 184.643 137.141 184.746 136.66 184.47C133.966 182.946 131.304 181.35 128.672 179.714C128.15 179.397 127.822 178.783 127.372 178.343C125.047 176.073 122.722 173.813 120.377 171.573C120.132 171.338 119.773 171.235 119.466 171.062C119.394 171.154 119.323 171.235 119.241 171.327C119.527 171.634 119.773 171.982 120.101 172.238C125.477 176.584 129.594 181.974 133.055 187.896C133.567 188.775 133.977 189.716 134.356 190.667C134.673 191.455 134.366 191.823 133.577 191.526C132.594 191.168 131.601 190.718 130.761 190.105C127.433 187.671 124.115 185.206 120.889 182.629C119.773 181.739 118.995 180.45 117.971 179.427C116.547 178.016 115.042 176.676 113.547 175.326C113.291 175.091 112.953 174.927 112.656 174.733C112.574 174.825 112.482 174.917 112.4 175.009C112.635 175.285 112.861 175.592 113.117 175.848C114.981 177.668 117.029 179.346 118.688 181.34C121.043 184.163 122.825 187.384 124.136 190.831C124.289 191.25 124.166 191.772 124.166 192.242C123.705 192.181 123.142 192.263 122.784 192.027C120.285 190.381 117.653 188.877 115.39 186.944C112.308 184.326 109.512 181.371 106.573 178.568C106.297 178.313 105.948 178.139 105.631 177.924C105.58 178.026 105.498 178.139 105.406 178.241Z" fill="white"/>
<path d="M94.9193 47.8537C94.6531 47.8434 94.3868 47.7821 94.141 47.823C89.9526 48.5184 86.645 46.7287 83.6752 44.0798C82.1494 42.7196 81.0024 41.1037 80.5416 39.048C79.8759 36.0821 80.7874 33.6684 83.0915 31.8071C85.539 29.8332 88.222 29.9662 90.8026 31.5003C92.0827 32.2673 93.1887 33.3616 94.2844 34.3946C95.4825 35.54 96.5168 36.8593 97.7252 37.9843C99.2203 39.3753 100.367 39.1912 101.453 37.4628C102.61 35.6116 103.583 33.6378 104.791 31.8275C105.641 30.5389 106.737 29.4139 107.74 28.2378C107.956 27.9923 108.242 27.8082 108.672 27.7162C108.529 28.4218 108.304 29.1275 108.242 29.8434C108.13 31.0707 108.836 31.5923 109.942 31.0093C111.345 30.2832 112.666 29.3832 114.028 28.5855C114.725 28.1764 115.462 27.8287 116.168 27.44C117.52 26.7037 117.541 25.7014 116.24 24.8934C115.974 24.7298 115.697 24.5764 115.257 24.3105C117.592 23.5843 119.814 23.5946 122.016 23.6968C122.057 23.8809 122.077 23.9218 122.067 23.9423C120.685 25.8753 120.818 26.2025 123.234 26.7343C126.02 27.3582 126.01 27.3582 126.327 30.1707C126.583 32.4412 126.767 34.7321 127.146 36.9821C127.648 39.9071 129.225 42.423 130.475 45.0616C131.243 46.6775 131.98 48.3548 132.369 50.0832C133.311 54.3173 130.741 57.4162 127.761 59.2673C124.596 61.2309 121.053 61.4355 117.51 60.8218C112.799 60.0139 108.58 58.0196 104.955 54.8593C104.853 54.7775 104.72 54.7264 104.504 54.6037C103.675 55.9128 103.87 57.273 104.187 58.5821C104.986 61.865 107.198 63.9923 110.065 65.5673C110.434 65.7718 110.843 66.2321 110.895 66.6207C111.273 69.6684 111.57 72.7468 110.772 75.7741C110.086 78.3923 109.092 80.8468 106.153 81.7468C103.388 82.5855 100.777 82.1662 98.3192 80.6934C94.8784 78.6378 92.4616 75.59 90.5466 72.1843C89.0003 69.4332 87.7919 66.4878 86.5118 63.5934C86.3275 63.1843 86.4094 62.5707 86.5733 62.1309C88.1401 58.0196 89.7581 53.9287 91.3249 49.8275C91.6116 49.0809 91.9905 48.6923 92.8507 48.7025C93.5676 48.7128 94.2946 48.4775 95.0115 48.3446C94.9705 48.1707 94.95 48.0173 94.9193 47.8537ZM110.055 33.965C110.014 34.1184 109.973 34.2718 109.932 34.4253C110.741 34.7321 111.54 35.1616 112.379 35.3355C114.11 35.6934 115.82 35.5503 117.377 34.64C118.104 34.2105 118.145 33.2593 117.643 32.298C117.203 31.4593 116.65 31.7764 116.046 32.0423C115.534 32.2775 115.001 32.4718 114.469 32.6355C113.004 33.0957 111.529 33.5253 110.055 33.965ZM122.313 34.2309C122.886 34.1696 123.153 34.1389 123.419 34.1082C124.463 33.9957 125.293 33.5048 125.856 32.615C126.307 31.9196 126.122 31.6128 125.293 31.5718C124.381 31.5207 123.47 31.4491 122.559 31.3775C120.971 31.265 120.449 31.9707 121.217 33.3718C121.75 34.3434 122.436 35.2537 123.132 36.1332C124.125 37.3809 124.136 37.6878 123.009 38.7718C122.815 38.9559 122.651 39.1809 122.303 39.5798C124.33 39.0071 124.914 37.4934 123.869 36.1332C123.429 35.54 122.937 34.9775 122.313 34.2309ZM85.4673 35.1923C85.4263 35.3355 85.3751 35.4787 85.3342 35.6116C85.6209 35.7139 85.8974 35.898 86.1841 35.9184C89.6045 36.1537 91.7345 38.0457 93.0043 41.0934C93.1784 41.5025 93.4344 41.8809 93.6495 42.2696C93.7826 42.1878 93.926 42.1162 94.0591 42.0343C93.6392 40.0196 92.6152 38.3116 90.9767 37.0025C89.3587 35.7139 87.5256 35.0184 85.4673 35.1923ZM123.511 44.5298C120.295 45.9923 118.237 44.765 116.855 41.7275C116.588 44.0798 117.95 45.8287 120.07 46.115C121.913 46.3605 123.337 45.7673 123.511 44.5298Z" fill="white"/>
<path d="M3.83991 161.683C3.00019 159.167 2.16046 156.938 1.52555 154.657C0.95208 152.622 0.767748 150.536 0.777989 148.388C0.788229 145.995 1.62796 144.072 3.205 142.384C5.35552 140.073 8.05902 138.703 10.9981 137.67C15.7804 135.992 20.6959 134.959 25.7035 134.223C34.8176 132.893 43.9829 132.362 53.1789 132.853C57.9612 133.108 62.7436 133.691 67.5054 134.274C70.127 134.591 71.0896 136.054 70.6493 138.662C70.424 140.012 70.0143 141.331 69.7891 142.681C69.6354 143.591 69.1541 143.693 68.3759 143.581C66.1741 143.264 63.9724 142.967 61.7707 142.722C56.0155 142.078 50.291 142.384 44.5563 143.111C38.156 143.918 32.0321 145.688 26.0107 147.897C18.8218 150.536 12.3601 154.422 6.43077 159.239C5.60129 159.893 4.89469 160.671 3.83991 161.683Z" fill="white"/>
<path d="M85.5288 63.4707C86.3481 65.3525 87.0547 67.1116 87.8842 68.8093C89.9732 73.1252 92.4924 77.1446 96.3224 80.1718C97.9506 81.4503 99.7325 82.4014 101.822 82.7082C103.204 82.9127 103.225 82.9537 102.743 84.2525C101.125 88.6298 99.3126 92.9048 96.4145 96.6173C95.8615 97.3332 95.1857 97.9877 94.4586 98.5298C93.0454 99.5832 91.8985 99.5014 90.8949 98.0696C89.625 96.2593 88.3757 94.3877 87.4643 92.3832C85.5186 88.0877 83.7163 83.7309 82.0061 79.3332C80.6748 75.9275 79.5688 72.44 78.4014 68.9832C78.3092 68.6968 78.3809 68.1446 78.5857 68.0014C80.8489 66.498 83.153 65.015 85.5288 63.4707Z" fill="white"/>
<path d="M87.3106 156.958C83.4396 156.754 79.8759 155.741 76.8652 153.327C75.6671 152.366 74.5611 151.057 73.9467 149.676C72.7792 147.068 74.2436 144.481 77.2441 143.233C82.5794 141.014 90.7104 142.814 94.5711 147.058C96.8957 149.605 97.0493 152.693 94.7862 154.524C93.8031 155.322 92.5742 155.915 91.3556 156.304C90.0653 156.713 88.6623 156.754 87.3106 156.958ZM85.795 148.224C85.5287 147.999 85.2317 147.59 84.8528 147.467C82.9276 146.802 80.9717 146.189 79.0157 145.606C78.7188 145.524 78.3501 145.708 78.0122 145.769C78.2374 146.056 78.4013 146.496 78.688 146.598C80.3368 147.201 82.0162 147.754 83.6854 148.275C84.2896 148.459 84.4842 148.746 84.2691 149.359C83.9414 150.29 83.6445 151.231 83.4089 152.182C83.3577 152.407 83.6035 152.693 83.7059 152.959C83.9312 152.836 84.2999 152.765 84.3613 152.581C84.8528 151.221 85.2727 149.84 85.795 148.224Z" fill="white"/>
<path d="M112.338 70.5991C113.711 71.7343 115.103 72.8389 116.435 74.015C116.67 74.2196 116.68 74.7309 116.691 75.1093C116.875 80.3355 116.66 85.5514 115.769 90.7162C115.482 92.3934 114.94 94.0707 114.264 95.6457C113.485 97.4457 112.113 97.64 110.966 96.0446C109.615 94.173 108.447 92.1378 107.433 90.0616C106.45 88.0468 105.764 85.8787 104.955 83.7821C104.74 83.2298 104.679 82.7389 105.477 82.6059C108.631 82.0843 110.301 79.9468 111.11 77.1037C111.601 75.365 111.714 73.5139 111.99 71.7037C112.042 71.3968 112.031 71.09 112.052 70.7832C112.154 70.7321 112.246 70.6605 112.338 70.5991Z" fill="white"/>
<path d="M11.0288 156.815C11.2541 157.459 11.4179 157.981 11.6023 158.482C12.0631 159.699 12.5239 160.906 13.0155 162.113C13.2407 162.685 13.2305 163.074 12.4829 163.125C10.7318 163.258 8.98068 163.412 7.2193 163.534C6.87112 163.555 6.51271 163.524 6.16453 163.463C4.567 163.176 4.32123 162.522 5.37601 161.274C6.93257 159.474 8.85779 158.144 11.0288 156.815Z" fill="white"/>
<path d="M110.055 33.9651C111.529 33.5254 113.004 33.0958 114.468 32.6458C115.001 32.4822 115.533 32.2776 116.045 32.0526C116.65 31.7765 117.203 31.4697 117.643 32.3083C118.155 33.2697 118.104 34.231 117.377 34.6504C115.82 35.5606 114.1 35.7038 112.379 35.3458C111.54 35.1719 110.751 34.7424 109.932 34.4356C109.973 34.2719 110.014 34.1185 110.055 33.9651Z" fill="black"/>
<path d="M122.313 34.231C122.927 34.9776 123.419 35.5401 123.869 36.1333C124.904 37.4935 124.33 39.0072 122.302 39.5799C122.651 39.181 122.815 38.956 123.009 38.7719C124.136 37.6981 124.125 37.381 123.132 36.1333C122.436 35.2537 121.749 34.3537 121.217 33.3719C120.449 31.9708 120.971 31.2651 122.558 31.3776C123.47 31.4492 124.381 31.5208 125.293 31.5719C126.112 31.6128 126.296 31.9197 125.856 32.6151C125.293 33.5049 124.473 33.9958 123.419 34.1083C123.152 34.139 122.886 34.1594 122.313 34.231Z" fill="black"/>
<path d="M85.4674 35.1924C87.5257 35.0185 89.3588 35.714 90.9768 37.0026C92.6153 38.3117 93.6393 40.0196 94.0592 42.0344C93.9261 42.1162 93.7827 42.1878 93.6496 42.2696C93.4345 41.881 93.1785 41.5026 93.0044 41.0935C91.7346 38.0458 89.6045 36.1537 86.1842 35.9185C85.8975 35.8981 85.6107 35.7242 85.3342 35.6117C85.3752 35.4787 85.4264 35.3356 85.4674 35.1924Z" fill="black"/>
<path d="M123.511 44.5298C123.347 45.7673 121.913 46.3605 120.06 46.115C117.95 45.8287 116.588 44.0798 116.844 41.7275C118.237 44.765 120.295 45.9923 123.511 44.5298Z" fill="black"/>
<path d="M85.795 148.224C85.2728 149.84 84.8529 151.221 84.3716 152.581C84.3102 152.765 83.9415 152.836 83.7162 152.959C83.6138 152.704 83.368 152.407 83.4192 152.182C83.6548 151.231 83.9517 150.29 84.2794 149.359C84.4945 148.746 84.2999 148.459 83.6957 148.275C82.0163 147.754 80.3471 147.201 78.6983 146.598C78.4116 146.496 78.2478 146.056 78.0225 145.769C78.3604 145.708 78.7291 145.524 79.026 145.606C80.982 146.189 82.9277 146.802 84.8631 147.467C85.2318 147.59 85.5185 147.999 85.795 148.224Z" fill="black"/>
<path d="M101.627 98.6626C101.627 98.6626 102.641 141.627 96.394 152.069C96.394 152.069 111.437 157.019 116.844 161.683H121.524C121.524 161.683 125.375 136.033 108.13 97.6501C108.14 97.6501 106.03 99.757 101.627 98.6626Z" fill="black"/>
<path d="M181.206 105.587L154.683 166.071H220.96L247.79 106.865C248.466 105.382 247.391 103.705 245.763 103.684L185.036 103.101C183.377 103.091 181.872 104.063 181.206 105.587Z" fill="#C4C4C4"/>
<path d="M116.854 161.683L154.683 161.571L152.758 166.061H123.378L116.854 161.683Z" fill="#C4C4C4"/>
<path d="M146.839 164.659H142.005C141.534 164.659 141.166 164.281 141.166 163.821C141.166 163.35 141.545 162.982 142.005 162.982H146.839C147.31 162.982 147.679 163.36 147.679 163.821C147.689 164.281 147.31 164.659 146.839 164.659Z" fill="white"/>
<path d="M150.075 164.813C150.623 164.813 151.068 164.369 151.068 163.821C151.068 163.273 150.623 162.829 150.075 162.829C149.526 162.829 149.082 163.273 149.082 163.821C149.082 164.369 149.526 164.813 150.075 164.813Z" fill="white"/>
<path d="M224.001 144.287C222.711 142.988 222.701 142.251 224.073 141.014C226.316 138.989 229.071 137.864 231.856 136.831C233.146 136.35 234.437 135.941 235.87 136.34C238.676 137.127 239.659 140.462 237.601 142.538C237.048 143.09 236.905 143.468 237.232 144.225C237.826 145.596 237.304 147.191 235.973 148.265C235.266 148.838 234.447 149.267 233.679 149.758C234.662 152.673 233.884 154.309 230.986 155.496C230.76 155.588 230.494 155.884 230.463 156.119C230.197 158.011 229.122 159.331 227.268 159.679C224.227 160.261 221.298 159.852 218.523 158.431C218.431 158.38 218.338 158.329 218.246 158.267C217.519 157.715 216.618 157.214 216.874 156.099C217.11 155.056 218.113 154.964 218.932 154.677C219.219 154.585 219.526 154.565 220.018 154.483C219.68 154.166 219.465 153.951 219.25 153.757C218.185 152.816 218.226 151.691 219.496 151.016C220.417 150.535 221.482 150.321 222.476 149.993C222.66 149.932 222.855 149.891 223.223 149.799C222.312 149.4 221.554 149.144 220.868 148.756C219.588 148.03 219.465 147.058 220.653 146.189C221.667 145.463 222.844 144.941 224.001 144.287ZM229.398 143.939C231.457 143.673 233.218 143.519 234.949 143.202C236.966 142.834 238.338 140.993 237.908 139.367C237.386 137.383 235.676 136.483 233.525 137.107C232.511 137.404 231.467 137.669 230.545 138.15C228.497 139.234 226.51 140.41 224.544 141.627C224.196 141.842 223.817 142.568 223.94 142.834C224.104 143.213 224.718 143.55 225.169 143.612C226.664 143.806 228.18 143.857 229.398 143.939ZM227.596 149.584C227.616 149.492 227.627 149.39 227.647 149.298C228.702 149.298 229.767 149.339 230.822 149.288C232.378 149.206 233.986 149.052 235.174 147.917C235.829 147.293 236.382 146.444 236.7 145.596C237.058 144.614 236.27 143.755 235.42 143.847C232.86 144.123 230.31 144.45 227.739 144.542C225.476 144.624 223.469 145.36 221.554 146.455C221.196 146.659 220.704 147.181 220.765 147.426C220.858 147.805 221.349 148.244 221.749 148.347C223.674 148.807 225.64 149.175 227.596 149.584ZM227.698 155.189C227.719 155.097 227.729 155.015 227.75 154.923C228.384 154.923 229.019 154.964 229.654 154.913C231.098 154.79 232.388 154.279 233.044 152.918C233.331 152.325 233.464 151.394 233.177 150.873C232.931 150.423 232.03 150.239 231.375 150.116C230.842 150.014 230.258 150.167 229.695 150.198C226.715 150.392 223.684 150.259 220.806 151.251C220.253 151.446 219.823 152.018 219.342 152.417C219.762 152.847 220.182 153.287 220.612 153.696C220.704 153.788 220.868 153.808 221.001 153.839C223.233 154.309 225.466 154.749 227.698 155.189ZM221.431 155.189C220.735 155.271 219.875 155.301 219.055 155.506C218.564 155.629 218.134 156.038 217.683 156.314C217.99 156.743 218.216 157.326 218.635 157.572C220.878 158.922 223.387 159.361 225.957 159.198C227.258 159.116 228.528 158.646 229.327 157.469C229.921 156.59 229.695 155.843 228.753 155.762C226.367 155.537 223.971 155.383 221.431 155.189Z" fill="black"/>
<path d="M229.398 143.939C228.18 143.857 226.664 143.806 225.159 143.622C224.698 143.561 224.094 143.223 223.93 142.845C223.807 142.569 224.186 141.853 224.534 141.638C226.5 140.421 228.487 139.234 230.535 138.161C231.456 137.67 232.511 137.414 233.515 137.117C235.665 136.494 237.376 137.394 237.898 139.378C238.328 140.994 236.966 142.845 234.938 143.213C233.218 143.52 231.456 143.673 229.398 143.939Z" fill="white"/>
<path d="M227.596 149.584C225.64 149.175 223.674 148.817 221.738 148.337C221.339 148.245 220.847 147.795 220.755 147.416C220.694 147.16 221.185 146.639 221.544 146.445C223.459 145.36 225.466 144.624 227.729 144.532C230.299 144.43 232.849 144.103 235.409 143.837C236.259 143.745 237.048 144.604 236.69 145.585C236.382 146.434 235.819 147.273 235.164 147.907C233.976 149.042 232.378 149.196 230.811 149.278C229.757 149.329 228.692 149.288 227.637 149.288C227.627 149.39 227.616 149.482 227.596 149.584Z" fill="white"/>
<path d="M227.698 155.189C225.466 154.749 223.233 154.299 221.001 153.859C220.868 153.829 220.704 153.808 220.612 153.716C220.172 153.297 219.762 152.867 219.342 152.438C219.834 152.039 220.253 151.466 220.806 151.272C223.684 150.28 226.715 150.413 229.695 150.219C230.258 150.178 230.842 150.034 231.375 150.137C232.02 150.259 232.931 150.444 233.177 150.894C233.454 151.405 233.32 152.346 233.044 152.939C232.388 154.289 231.098 154.811 229.654 154.933C229.019 154.984 228.384 154.944 227.75 154.944C227.739 155.015 227.719 155.107 227.698 155.189Z" fill="white"/>
<path d="M221.431 155.189C223.971 155.383 226.367 155.537 228.753 155.751C229.695 155.844 229.921 156.59 229.327 157.459C228.518 158.646 227.258 159.106 225.957 159.188C223.387 159.351 220.878 158.912 218.635 157.562C218.216 157.316 218.001 156.733 217.683 156.304C218.134 156.028 218.564 155.619 219.055 155.496C219.875 155.301 220.735 155.281 221.431 155.189Z" fill="white"/>
</svg>
