<svg width="249" height="194" viewBox="0 0 249 194" fill="none" xmlns="http://www.w3.org/2000/svg">
<path d="M60.5572 64.5123L62.421 63.6226L79.0005 67.693L99.9834 86.501L107.776 84.4146L117.986 73.7782C117.986 73.7782 136.409 73.8396 144.816 81.3669C145.451 81.3771 150.172 84.4248 152.558 87.6669C154.944 90.9089 156.634 92.1055 158.979 95.818C161.324 99.5305 163.987 103.601 165.4 107.518C166.813 111.435 169.558 119.382 170.244 122.163C170.93 124.945 171.688 130.632 171.688 130.632L156.224 166.069H40.0557L60.5572 64.5123Z" fill="white"/>
<path d="M120.167 161.426C119.573 161.426 118.979 161.426 118.375 161.426C118.324 161.518 118.273 161.61 118.222 161.702C118.621 162.019 119.01 162.377 119.44 162.653C125.277 166.509 130.725 170.825 135.16 176.266C136.89 178.383 138.273 180.786 139.809 183.057C139.85 183.118 139.901 183.179 139.901 183.241C139.921 183.947 140.218 184.939 139.87 185.286C139.512 185.654 138.437 185.624 137.832 185.378C136.306 184.744 134.873 183.906 133.408 183.128C132.743 182.77 132.098 182.372 131.442 181.993C131.371 182.065 131.299 182.126 131.227 182.198C131.596 182.76 131.985 183.312 132.313 183.895C133.531 186.074 134.77 188.242 135.887 190.461C136.102 190.901 136.03 191.924 135.753 192.067C135.262 192.333 134.392 192.374 133.91 192.098C131.995 191.054 130.131 189.899 128.329 188.682C126.895 187.72 125.564 186.595 124.192 185.552C123.926 185.358 123.649 185.184 123.373 185C123.301 185.061 123.229 185.123 123.158 185.184C123.649 186.125 124.192 187.045 124.622 188.017C125.103 189.07 125.595 190.144 125.861 191.259C125.984 191.76 125.728 192.507 125.38 192.916C125.175 193.151 124.346 193.12 123.977 192.906C122.123 191.832 120.321 190.666 118.529 189.5C117.566 188.876 116.645 188.191 115.518 187.69C115.815 188.487 116.122 189.285 116.409 190.093C116.532 190.451 116.665 190.829 116.696 191.208C116.778 192.445 116.133 192.957 115.006 192.445C112.702 191.402 110.377 190.379 108.176 189.142C103.526 186.534 98.9592 183.793 93.9311 181.952C89.8042 180.439 85.5748 179.406 81.2328 178.741C73.7675 177.606 66.2509 177.227 58.7241 177.023C51.1768 176.808 43.6193 176.665 36.072 176.429C32.8667 176.327 29.6512 176.143 26.5585 175.12C22.534 173.791 19.4925 171.214 17.1167 167.798C16.3692 166.724 15.6933 165.609 15.0686 164.464C14.7307 163.85 14.362 163.717 13.7066 163.809C12.2422 164.024 10.7676 164.239 9.28272 164.29C8.26891 164.331 7.22437 164.198 6.25152 163.932C5.70877 163.789 5.10458 163.308 4.82808 162.817C3.14863 159.82 2.14506 156.548 1.46918 153.203C1.16197 151.7 1.10052 150.145 0.957157 148.611C0.731865 146.003 1.7764 143.866 3.50706 142.025C4.23413 141.258 5.00217 140.501 5.87262 139.918C6.7021 139.356 7.01956 138.722 7.01956 137.74C7.04004 130.754 8.17674 123.912 9.75379 117.122C11.6176 109.103 14.0753 101.279 17.5264 93.8033C21.3563 85.4988 26.1796 77.8692 33.2456 71.8658C38.3659 67.509 44.1825 64.5738 50.8901 63.459C55.9899 62.6101 61.0385 62.7431 66.0461 63.8783C70.2038 64.8192 74.3 66.0261 78.4371 67.0795C78.857 67.1817 79.4305 67.1204 79.7889 66.9056C81.8063 65.6681 83.8749 64.4817 85.7182 63.0192C86.5886 62.3238 87.1723 61.1374 87.6127 60.0533C89.0361 56.5658 90.3264 53.0272 91.6782 49.509C91.9752 48.742 91.4119 48.6602 90.9204 48.4352C89.2614 47.6886 87.5205 47.0442 85.9844 46.0829C83.6701 44.6306 81.9189 42.6261 80.9768 39.9772C79.1642 34.9147 83.2092 29.3408 88.5241 29.6579C89.2819 29.6988 90.0294 29.9442 91.033 30.1386C90.9511 28.8192 90.9716 27.6329 90.777 26.4772C90.3162 23.7158 89.3945 21.0874 88.094 18.6022C85.4622 13.5602 88.0325 8.43629 92.2004 5.97152C95.3238 4.13061 98.5598 4.0897 101.796 5.81811C102.072 5.96129 102.359 6.09424 102.687 6.24765C102.83 6.01243 103.004 5.82833 103.086 5.60333C104.172 2.59652 106.455 1.14424 109.425 0.264698C112.671 -0.696665 117.146 1.15447 118.898 4.07947C119.317 4.78515 119.307 5.17379 118.631 5.72606C117.126 6.97379 116.266 8.69197 115.662 10.5227C115.58 10.7783 115.795 11.1261 115.877 11.4329C116.122 11.2386 116.46 11.0954 116.614 10.8499C117.443 9.51015 117.996 7.93515 119.061 6.84083C122.113 3.71129 129.773 3.59879 132.456 9.79652C134.545 14.6136 133.193 20.5658 128.411 22.9079C128.114 23.0511 127.807 23.5624 127.807 23.8897C127.838 28.6556 127.848 33.4624 129.189 38.0647C129.896 40.4681 131.186 42.7079 132.272 44.9988C133.204 46.9829 134.135 48.9567 134.238 51.1965C134.422 55.3795 132.077 58.0999 128.759 60.0533C125.697 61.8636 122.267 62.1908 118.795 61.5772C116.962 61.2499 115.19 60.6261 113.388 60.1351C113.194 60.084 112.989 60.0533 112.753 60.0124C112.682 60.1863 112.579 60.309 112.589 60.4317C112.63 63.009 112.63 65.5863 112.784 68.1533C112.825 68.7977 113.337 69.4624 113.767 70.0147C114.095 70.4545 114.678 70.6999 115.057 71.109C116.768 72.9602 118.826 73.359 121.325 73.3386C133.214 73.2363 143.229 77.767 151.606 86.0715C157.965 92.3817 162.502 99.8886 166.014 108.06C168.728 114.37 170.612 120.926 171.739 127.697C171.81 128.126 171.636 128.586 171.575 129.036C171.483 129.026 171.401 129.026 171.309 129.016C171.012 127.553 170.725 126.081 170.428 124.618C169.148 118.236 167.12 112.09 164.386 106.178C161.027 98.917 156.798 92.2386 151.104 86.5624C145.83 81.3158 139.706 77.4704 132.497 75.4556C128.175 74.2488 123.752 73.8602 119.266 74.0749C118.56 74.1056 118.375 74.4124 118.406 75.0772C118.662 80.7738 118.324 86.4499 117.198 92.0442C116.89 93.5783 116.296 95.092 115.58 96.4829C114.76 98.0783 113.316 98.3749 112.118 97.0863C110.9 95.767 110.121 95.9101 108.596 96.7386C105.708 98.3136 102.584 98.0681 99.6453 96.5749C98.908 96.1965 98.5701 96.3602 98.0478 96.9022C97.1466 97.8329 96.2147 98.784 95.119 99.459C93.716 100.328 92.7227 100.206 91.7601 98.8965C90.2445 96.8306 88.7494 94.6931 87.6639 92.392C85.7899 88.4136 84.1411 84.3227 82.5538 80.2113C81.1099 76.4681 79.8811 72.6431 78.5703 68.8488C78.3347 68.1431 78.048 67.5908 77.239 67.3965C72.641 66.292 68.0532 65.1772 63.4655 64.0624C63.3733 64.042 63.2607 64.0726 63.0046 64.0931C63.3221 64.3692 63.5167 64.6147 63.7727 64.7579C68.1454 67.1613 70.7772 71.017 72.6512 75.4658C75.4571 82.134 76.1433 89.1806 75.9794 96.3192C75.836 102.292 75.1397 108.203 74.0747 114.094C72.9277 120.415 71.4429 126.643 69.5586 132.779C69.364 133.403 69.405 133.72 70.0706 133.997C71.6989 134.651 72.5181 135.919 72.3133 137.668C72.1392 139.202 71.8832 140.736 71.5248 142.24C71.1766 143.712 71.1971 143.845 72.6512 144.122C72.9585 144.183 73.2657 144.275 73.5729 144.357C74.4024 144.582 75.0578 144.469 75.8053 143.886C78.642 141.647 81.9906 141.237 85.4519 141.636C88.8723 142.025 92.1083 143.078 94.7503 145.369C95.9997 146.453 96.9828 147.854 98.2219 149.276M21.5714 127.318C21.5611 127.165 21.5611 127.011 21.5509 126.858C21.8274 126.786 22.1039 126.694 22.3906 126.664C29.9789 125.723 37.4954 126.561 44.9813 127.748C48.9546 128.372 52.8972 129.21 56.8091 130.12C60.1373 130.898 63.4245 131.849 66.7015 132.841C68.6062 133.414 68.5755 133.526 69.1694 131.665C69.1797 131.634 69.1899 131.593 69.2002 131.562C71.2585 124.373 72.9892 117.111 74.044 109.697C75.2523 101.198 75.8565 92.709 74.4024 84.1897C73.6241 79.6283 72.2314 75.292 69.6917 71.3852C66.3943 66.3124 61.7758 63.4283 55.6315 63.6329C50.7979 63.7965 46.1385 64.9522 41.7657 67.1102C35.2425 70.3317 30.1427 75.1692 25.8827 80.9579C21.5304 86.8795 18.1818 93.3533 15.7035 100.247C14.2084 104.419 12.744 108.623 11.5971 112.898C10.4604 117.142 9.54898 121.478 8.8731 125.815C8.25867 129.701 8.09482 133.669 7.74664 137.597C7.72616 137.852 7.81832 138.118 7.86953 138.456C8.22795 138.333 8.48396 138.241 8.75021 138.159C11.9657 137.126 15.1506 135.96 18.4071 135.091C25.2989 133.25 32.3752 132.595 39.4719 132.237C46.7529 131.869 54.0339 131.859 61.2945 132.575C61.6631 132.616 62.042 132.534 62.4209 132.514C55.7543 130.376 48.9853 128.995 42.1446 128.003C35.3244 127.022 28.4633 126.756 21.5714 127.318ZM106.332 178.25C106.414 178.148 106.496 178.045 106.588 177.933C106.906 178.148 107.264 178.322 107.531 178.577C110.459 181.379 113.255 184.335 116.348 186.953C118.611 188.876 121.243 190.39 123.741 192.036C124.1 192.272 124.653 192.19 125.124 192.251C125.124 191.781 125.247 191.259 125.093 190.84C123.782 187.393 122 184.172 119.645 181.349C117.976 179.354 115.938 177.677 114.074 175.857C113.808 175.601 113.593 175.294 113.357 175.018C113.439 174.926 113.532 174.834 113.613 174.742C113.91 174.936 114.248 175.09 114.504 175.335C115.989 176.685 117.495 178.025 118.928 179.436C119.952 180.449 120.731 181.748 121.847 182.637C125.073 185.215 128.391 187.669 131.719 190.114C132.558 190.727 133.552 191.177 134.535 191.535C135.323 191.832 135.631 191.464 135.313 190.676C134.934 189.735 134.525 188.784 134.013 187.904C130.551 181.983 126.435 176.593 121.058 172.247C120.741 171.991 120.485 171.643 120.198 171.336C120.27 171.244 120.341 171.162 120.423 171.07C120.731 171.234 121.089 171.347 121.335 171.582C123.68 173.822 126.004 176.082 128.329 178.352C128.78 178.792 129.107 179.406 129.63 179.723C132.261 181.359 134.924 182.954 137.617 184.478C138.099 184.754 138.805 184.652 139.399 184.724C139.276 184.131 139.307 183.435 138.99 182.975C137.085 180.275 135.282 177.473 133.101 174.998C128.903 170.222 123.885 166.376 118.549 162.94C112.569 159.094 106.271 155.852 99.6863 153.183C99.1743 152.978 98.6827 152.682 98.5393 153.592C98.2526 155.494 97.1364 156.875 95.6003 157.939C94.0028 159.043 92.2312 159.626 90.2957 159.861C84.3459 160.577 79.0618 159.289 74.853 154.819C72.6717 152.508 71.6169 148.754 73.7367 145.911C74.3204 145.134 73.6036 145.042 73.0813 144.94C67.5924 143.886 62.0728 143.15 56.4609 143.14C50.9618 143.119 45.5035 143.528 40.158 144.797C36.4611 145.676 32.7848 146.709 29.1801 147.916C23.6093 149.777 18.2944 152.211 13.4813 155.637C12.8362 156.098 12.7031 156.568 12.9693 157.253C13.7886 159.309 14.4747 161.436 15.4373 163.431C19.0112 170.845 24.6231 175.325 33.1842 175.55C40.9158 175.754 48.6474 176.051 56.379 176.307C60.8951 176.46 65.4214 176.614 69.9375 176.798C71.4428 176.859 71.4736 176.91 71.6681 175.458C72.4055 169.71 73.7675 164.106 75.5698 158.593C75.8872 157.611 76.1842 157.611 76.9318 158.123C79.3998 159.79 82.1135 160.812 85.1037 161.068C86.5272 161.191 87.9506 161.273 89.4457 161.385C89.3229 161.804 89.2512 162.142 89.1283 162.469C87.2543 167.327 85.9742 172.328 85.2471 177.473C85.1242 178.332 85.2881 178.71 86.2302 178.915C90.7156 179.907 95.1088 181.267 99.1845 183.415C104.049 185.982 108.821 188.733 113.644 191.372C114.392 191.781 115.303 192.456 116.061 191.689C116.737 190.993 116.061 190.165 115.682 189.479C113.45 185.501 110.47 182.126 107.09 179.089C106.793 178.833 106.578 178.526 106.332 178.25ZM95.8461 47.8624C95.8768 48.0261 95.8973 48.1795 95.928 48.3431C95.2112 48.4658 94.4841 48.7113 93.7673 48.7011C92.8968 48.6908 92.5281 49.0795 92.2414 49.8261C90.6644 53.9374 89.0464 58.0181 87.4898 62.1295C87.326 62.5692 87.2543 63.1931 87.4283 63.592C88.7187 66.4863 89.9168 69.4317 91.4631 72.1829C93.3781 75.5886 95.7949 78.6363 99.2357 80.692C101.693 82.1647 104.305 82.584 107.07 81.7454C110.009 80.8556 111.002 78.3908 111.688 75.7727C112.487 72.7454 112.19 69.667 111.811 66.6192C111.76 66.2306 111.35 65.7704 110.982 65.5658C108.104 63.9908 105.902 61.8533 105.104 58.5806C104.786 57.2715 104.592 55.9113 105.421 54.6022C105.646 54.7249 105.779 54.7761 105.872 54.8579C109.497 58.0181 113.706 60.0227 118.426 60.8204C121.97 61.4238 125.513 61.2192 128.677 59.2658C131.657 57.4147 134.238 54.3158 133.286 50.0817C132.896 48.3533 132.159 46.6761 131.391 45.0602C130.131 42.4215 128.565 39.9056 128.063 36.9806C127.674 34.7306 127.5 32.4397 127.244 30.1692C126.926 27.3567 126.926 27.3567 124.151 26.7329C121.734 26.1908 121.601 25.8738 122.984 23.9408C122.994 23.9204 122.973 23.8795 122.932 23.6954C120.731 23.5931 118.508 23.5829 116.174 24.309C116.614 24.5749 116.89 24.7283 117.157 24.892C118.457 25.6999 118.426 26.7022 117.085 27.4386C116.368 27.8272 115.641 28.1749 114.945 28.584C113.572 29.3817 112.262 30.2715 110.859 31.0079C109.753 31.5908 109.046 31.0692 109.159 29.842C109.22 29.1261 109.446 28.4306 109.589 27.7147C109.149 27.7965 108.862 27.9806 108.657 28.2363C107.653 29.4227 106.558 30.5477 105.708 31.8261C104.499 33.6465 103.526 35.6101 102.369 37.4613C101.284 39.1999 100.137 39.3738 98.6418 37.9829C97.4231 36.8579 96.3991 35.5386 95.2009 34.3931C94.1052 33.3499 93.0094 32.2556 91.7191 31.4988C89.1488 29.9647 86.4657 29.8317 84.008 31.8056C81.7039 33.667 80.7925 36.0806 81.4581 39.0465C81.9189 41.1022 83.0761 42.7181 84.5917 44.0783C87.5615 46.7272 90.8692 48.517 95.0576 47.8215C95.3136 47.7908 95.5901 47.8522 95.8461 47.8624ZM4.76664 161.692C5.82142 160.679 6.52801 159.902 7.33702 159.248C13.2663 154.441 19.7281 150.544 26.917 147.906C32.9384 145.697 39.0622 143.927 45.4626 143.119C51.1973 142.393 56.9218 142.086 62.6769 142.731C64.8787 142.976 67.0804 143.283 69.2821 143.59C70.0604 143.702 70.5417 143.6 70.6953 142.69C70.9206 141.34 71.3302 140.02 71.5555 138.67C71.9958 136.062 71.0435 134.6 68.4117 134.283C63.6498 133.7 58.8777 133.117 54.0851 132.861C44.8891 132.37 35.7238 132.912 26.6097 134.232C21.6021 134.958 16.6866 136.001 11.9043 137.678C8.96527 138.711 6.26176 140.082 4.11125 142.393C2.5342 144.081 1.69448 146.003 1.68424 148.397C1.674 150.534 1.86857 152.631 2.4318 154.666C3.08719 156.947 3.92692 159.176 4.76664 161.692ZM86.4555 63.4795C84.0797 65.0238 81.7756 66.4965 79.5022 68.0306C79.3076 68.1636 79.2257 68.7261 79.3178 69.0124C80.4853 72.4692 81.6015 75.9567 82.9225 79.3624C84.6327 83.7499 86.435 88.117 88.3807 92.4124C89.2921 94.417 90.5415 96.2886 91.8113 98.0988C92.8149 99.5204 93.9618 99.6022 95.375 98.559C96.1021 98.017 96.7677 97.3624 97.331 96.6465C100.229 92.934 102.042 88.6488 103.66 84.2817C104.141 82.9829 104.12 82.942 102.738 82.7374C100.649 82.4306 98.8568 81.4795 97.2388 80.2011C93.3986 77.1738 90.8897 73.1545 88.8006 68.8386C87.9813 67.1204 87.2747 65.3613 86.4555 63.4795ZM88.2374 156.967C89.5891 156.762 90.9921 156.711 92.2824 156.312C93.501 155.934 94.7299 155.331 95.713 154.533C97.9761 152.702 97.8225 149.614 95.4979 147.067C91.627 142.823 83.496 141.023 78.1709 143.242C75.1704 144.49 73.706 147.067 74.8734 149.685C75.4879 151.066 76.6041 152.375 77.792 153.336C80.7925 155.75 84.3664 156.773 88.2374 156.967ZM113.265 70.6079C113.173 70.6693 113.071 70.7306 112.979 70.8022C112.958 71.109 112.958 71.4158 112.917 71.7227C112.641 73.5227 112.528 75.384 112.036 77.1227C111.227 79.9556 109.558 82.1033 106.404 82.6249C105.605 82.7579 105.667 83.2386 105.882 83.8011C106.691 85.8977 107.377 88.0658 108.36 90.0806C109.374 92.1567 110.552 94.1817 111.893 96.0636C113.04 97.659 114.412 97.4647 115.19 95.6647C115.866 94.0999 116.409 92.4227 116.696 90.7352C117.587 85.5806 117.802 80.3545 117.617 75.1283C117.607 74.7499 117.587 74.2386 117.361 74.034C116.04 72.8477 114.637 71.7431 113.265 70.6079ZM11.9555 156.824C9.77427 158.153 7.84905 159.483 6.31296 161.303C5.25819 162.551 5.50396 163.206 7.10149 163.492C7.44966 163.553 7.80808 163.584 8.15626 163.564C9.9074 163.441 11.6585 163.287 13.4199 163.154C14.1675 163.103 14.1777 162.704 13.9524 162.142C13.4711 160.935 13 159.728 12.5392 158.511C12.3446 157.99 12.1808 157.468 11.9555 156.824Z" fill="black"/>
<path d="M134.934 101.688C135.098 101.913 135.313 102.118 135.426 102.363C137.279 106.373 138.6 110.566 139.696 114.831C141.283 121.018 142.318 127.318 142.942 133.669C143.649 140.798 144.079 147.946 143.598 155.126C143.475 156.957 143.331 158.787 143.178 160.608C143.147 160.935 142.983 161.252 142.717 161.559C143.936 141.115 142.338 121.079 134.617 101.873C134.729 101.801 134.832 101.75 134.934 101.688Z" fill="black"/>
<path d="M21.5714 127.318C28.4632 126.756 35.3244 127.022 42.1446 128.014C48.9853 129.006 55.7543 130.386 62.4209 132.524C62.042 132.544 61.6631 132.616 61.2944 132.585C54.0237 131.869 46.7426 131.869 39.4718 132.248C32.3751 132.616 25.2989 133.26 18.407 135.101C15.1505 135.97 11.9657 137.136 8.75018 138.169C8.49417 138.251 8.22791 138.343 7.86949 138.466C7.81829 138.128 7.71589 137.863 7.74661 137.607C8.09479 133.68 8.25863 129.711 8.87307 125.825C9.54894 121.478 10.4604 117.152 11.5971 112.908C12.744 108.633 14.2084 104.43 15.7035 100.257C18.1817 93.3534 21.5304 86.8898 25.8826 80.9682C30.1427 75.1694 35.2527 70.3421 41.7657 67.1205C46.1384 64.9625 50.7979 63.8069 55.6314 63.6432C61.7758 63.4387 66.3942 66.333 69.6917 71.3955C72.2313 75.3023 73.6241 79.6387 74.4023 84.2C75.8667 92.7296 75.2523 101.218 74.0439 109.707C72.9892 117.122 71.2687 124.383 69.2001 131.573C69.1899 131.603 69.1797 131.644 69.1694 131.675C68.5755 133.536 68.6062 133.424 66.7015 132.851C63.4347 131.859 60.1373 130.898 56.8091 130.131C52.8972 129.22 48.9546 128.382 44.9812 127.758C37.4954 126.572 29.9788 125.733 22.3906 126.674C22.1039 126.705 21.8274 126.807 21.5509 126.868C21.5611 127.011 21.5611 127.165 21.5714 127.318Z" fill="white"/>
<path d="M106.332 178.25C106.578 178.526 106.783 178.843 107.059 179.089C110.439 182.126 113.419 185.501 115.651 189.479C116.03 190.165 116.706 190.993 116.03 191.689C115.272 192.466 114.361 191.781 113.613 191.371C108.79 188.733 104.018 185.992 99.1537 183.415C95.078 181.257 90.695 179.907 86.1994 178.915C85.2573 178.71 85.0935 178.332 85.2164 177.473C85.9434 172.318 87.2235 167.317 89.0975 162.469C89.2204 162.152 89.2921 161.804 89.415 161.385C87.9096 161.273 86.4862 161.191 85.073 161.068C82.093 160.812 79.369 159.79 76.901 158.123C76.1535 157.611 75.8565 157.611 75.539 158.593C73.7469 164.106 72.3849 169.71 71.6374 175.458C71.4531 176.91 71.4121 176.859 69.9067 176.798C65.3906 176.614 60.8643 176.46 56.3482 176.307C48.6166 176.041 40.885 175.744 33.1534 175.55C24.5923 175.325 18.9805 170.845 15.4065 163.431C14.4439 161.436 13.7578 159.319 12.9386 157.253C12.6723 156.578 12.8054 156.098 13.4506 155.637C18.2636 152.211 23.5785 149.767 29.1493 147.916C32.754 146.719 36.4304 145.686 40.1272 144.796C45.4728 143.518 50.931 143.119 56.4302 143.14C62.042 143.16 67.5616 143.886 73.0506 144.94C73.5728 145.042 74.2897 145.134 73.706 145.911C71.5862 148.744 72.641 152.508 74.8222 154.819C79.0311 159.289 84.3152 160.587 90.2649 159.861C92.2004 159.626 93.9823 159.043 95.5695 157.939C97.1056 156.875 98.2116 155.494 98.5086 153.592C98.652 152.682 99.1435 152.978 99.6555 153.183C106.24 155.862 112.528 159.104 118.519 162.94C123.864 166.366 128.882 170.221 133.07 174.998C135.241 177.473 137.054 180.275 138.959 182.975C139.276 183.425 139.245 184.131 139.368 184.724C138.764 184.652 138.068 184.754 137.587 184.478C134.893 182.954 132.231 181.359 129.599 179.723C129.077 179.406 128.749 178.792 128.298 178.352C125.974 176.082 123.649 173.821 121.304 171.582C121.058 171.346 120.7 171.244 120.393 171.07C120.321 171.162 120.249 171.244 120.167 171.336C120.454 171.643 120.7 171.991 121.028 172.246C126.404 176.593 130.521 181.983 133.982 187.904C134.494 188.784 134.903 189.725 135.282 190.676C135.6 191.464 135.293 191.832 134.504 191.535C133.521 191.177 132.528 190.727 131.688 190.114C128.36 187.679 125.042 185.215 121.816 182.637C120.7 181.748 119.922 180.459 118.898 179.436C117.474 178.025 115.969 176.685 114.474 175.335C114.218 175.1 113.88 174.936 113.583 174.742C113.501 174.834 113.409 174.926 113.327 175.018C113.562 175.294 113.787 175.601 114.044 175.857C115.907 177.677 117.955 179.354 119.614 181.349C121.97 184.171 123.752 187.393 125.062 190.84C125.216 191.259 125.093 191.781 125.093 192.251C124.632 192.19 124.069 192.271 123.711 192.036C121.212 190.39 118.58 188.886 116.317 186.953C113.235 184.335 110.439 181.379 107.5 178.577C107.223 178.321 106.875 178.148 106.558 177.933C106.506 178.035 106.425 178.148 106.332 178.25Z" fill="white"/>
<path d="M95.8461 47.8624C95.5798 47.8522 95.3136 47.7909 95.0678 47.8318C90.8794 48.5272 87.5717 46.7375 84.602 44.0886C83.0761 42.7284 81.9292 41.1125 81.4683 39.0568C80.8027 36.0909 81.7141 33.6772 84.0182 31.8159C86.4657 29.842 89.1488 29.975 91.7294 31.509C93.0094 32.2761 94.1154 33.3704 95.2112 34.4034C96.4093 35.5488 97.4436 36.8681 98.652 37.9931C100.147 39.384 101.294 39.2 102.38 37.4715C103.537 35.6204 104.51 33.6465 105.718 31.8363C106.568 30.5477 107.664 29.4227 108.667 28.2465C108.882 28.0011 109.169 27.817 109.599 27.725C109.456 28.4306 109.23 29.1363 109.169 29.8522C109.056 31.0795 109.763 31.6011 110.869 31.0181C112.272 30.292 113.593 29.392 114.955 28.5943C115.651 28.1852 116.389 27.8375 117.095 27.4488C118.447 26.7125 118.467 25.7102 117.167 24.9022C116.901 24.7386 116.624 24.5852 116.184 24.3193C118.519 23.5931 120.741 23.6034 122.943 23.7056C122.984 23.8897 123.004 23.9306 122.994 23.9511C121.611 25.884 121.744 26.2113 124.161 26.7431C126.947 27.367 126.936 27.367 127.254 30.1795C127.51 32.45 127.694 34.7409 128.073 36.9909C128.575 39.9159 130.152 42.4318 131.401 45.0704C132.169 46.6863 132.907 48.3636 133.296 50.092C134.238 54.3261 131.668 57.425 128.688 59.2761C125.523 61.2397 121.98 61.4443 118.437 60.8306C113.726 60.0227 109.507 58.0284 105.882 54.8681C105.779 54.7863 105.646 54.7352 105.431 54.6125C104.602 55.9215 104.796 57.2818 105.114 58.5909C105.913 61.8738 108.124 64.0011 110.992 65.5761C111.36 65.7806 111.77 66.2409 111.821 66.6295C112.2 69.6772 112.497 72.7556 111.698 75.7829C111.012 78.4011 110.019 80.8556 107.08 81.7556C104.315 82.5943 101.704 82.1749 99.2459 80.7022C95.8051 78.6465 93.3883 75.5988 91.4734 72.1931C89.927 69.442 88.7186 66.4965 87.4386 63.6022C87.2543 63.1931 87.3362 62.5795 87.5 62.1397C89.0668 58.0284 90.6848 53.9375 92.2516 49.8363C92.5384 49.0897 92.9173 48.7011 93.7775 48.7113C94.4943 48.7215 95.2214 48.4863 95.9382 48.3534C95.8973 48.1795 95.8768 48.0261 95.8461 47.8624ZM110.982 33.9738C110.941 34.1272 110.9 34.2806 110.859 34.434C111.668 34.7409 112.466 35.1704 113.306 35.3443C115.037 35.7022 116.747 35.559 118.304 34.6488C119.031 34.2193 119.072 33.2681 118.57 32.3068C118.13 31.4681 117.577 31.7852 116.972 32.0511C116.46 32.2863 115.928 32.4806 115.395 32.6443C113.931 33.1045 112.456 33.534 110.982 33.9738ZM123.24 34.2397C123.813 34.1784 124.079 34.1477 124.346 34.117C125.39 34.0045 126.22 33.5136 126.783 32.6238C127.233 31.9284 127.049 31.6215 126.22 31.5806C125.308 31.5295 124.397 31.4579 123.485 31.3863C121.898 31.2738 121.376 31.9795 122.144 33.3806C122.676 34.3522 123.362 35.2625 124.059 36.142C125.052 37.3897 125.062 37.6965 123.936 38.7806C123.741 38.9647 123.577 39.1897 123.229 39.5886C125.257 39.0159 125.841 37.5022 124.796 36.142C124.356 35.5488 123.864 34.9863 123.24 34.2397ZM86.394 35.2011C86.3531 35.3443 86.3019 35.4875 86.2609 35.6204C86.5477 35.7227 86.8241 35.9068 87.1109 35.9272C90.5312 36.1625 92.6613 38.0545 93.9311 41.1022C94.1052 41.5113 94.3612 41.8897 94.5762 42.2784C94.7094 42.1965 94.8527 42.125 94.9859 42.0431C94.566 40.0284 93.5419 38.3204 91.9035 37.0113C90.2855 35.7227 88.4524 35.0272 86.394 35.2011ZM124.438 44.5386C121.222 46.0011 119.164 44.7738 117.781 41.7363C117.515 44.0886 118.877 45.8375 120.997 46.1238C122.84 46.3693 124.264 45.7761 124.438 44.5386Z" fill="white"/>
<path d="M4.76667 161.692C3.92695 159.176 3.08722 156.947 2.45231 154.666C1.87884 152.631 1.69451 150.544 1.70475 148.397C1.71499 146.003 2.55471 144.081 4.13176 142.393C6.28227 140.082 8.98578 138.711 11.9248 137.678C16.7072 136.001 21.6226 134.968 26.6302 134.232C35.7443 132.902 44.9096 132.37 54.1056 132.861C58.888 133.117 63.6703 133.7 68.4322 134.283C71.0537 134.6 72.0164 136.063 71.576 138.67C71.3507 140.02 70.9411 141.34 70.7158 142.69C70.5622 143.6 70.0809 143.702 69.3026 143.59C67.1009 143.273 64.8992 142.976 62.6975 142.731C56.9423 142.086 51.2178 142.393 45.4831 143.119C39.0828 143.927 32.9589 145.697 26.9375 147.906C19.7486 150.544 13.2868 154.431 7.35753 159.248C6.52805 159.902 5.82145 160.68 4.76667 161.692Z" fill="white"/>
<path d="M86.4556 63.4795C87.2748 65.3613 87.9814 67.1204 88.8109 68.8181C90.9 73.134 93.4192 77.1534 97.2491 80.1806C98.8774 81.459 100.659 82.4102 102.748 82.717C104.131 82.9215 104.151 82.9624 103.67 84.2613C102.052 88.6386 100.239 92.9136 97.3413 96.6261C96.7883 97.342 96.1124 97.9965 95.3854 98.5386C93.9722 99.592 92.8252 99.5102 91.8216 98.0784C90.5518 96.2681 89.3025 94.3965 88.3911 92.392C86.4453 88.0965 84.643 83.7397 82.9328 79.342C81.6016 75.9363 80.4956 72.4488 79.3282 68.992C79.236 68.7056 79.3077 68.1534 79.5125 68.0102C81.7757 66.5068 84.0798 65.0238 86.4556 63.4795Z" fill="white"/>
<path d="M88.2373 156.967C84.3664 156.762 80.8027 155.75 77.792 153.336C76.5938 152.375 75.4879 151.066 74.8734 149.685C73.706 147.077 75.1704 144.49 78.1709 143.242C83.5062 141.023 91.6372 142.823 95.4979 147.067C97.8225 149.613 97.9761 152.702 95.7129 154.533C94.7298 155.33 93.501 155.924 92.2824 156.312C90.992 156.721 89.5891 156.762 88.2373 156.967ZM86.7217 148.233C86.4555 148.008 86.1585 147.599 85.7796 147.476C83.8544 146.811 81.8984 146.198 79.9425 145.615C79.6455 145.533 79.2769 145.717 78.9389 145.778C79.1642 146.065 79.3281 146.504 79.6148 146.607C81.2635 147.21 82.943 147.762 84.6122 148.284C85.2164 148.468 85.4109 148.754 85.1959 149.368C84.8682 150.299 84.5712 151.24 84.3357 152.191C84.2845 152.416 84.5303 152.702 84.6327 152.968C84.858 152.845 85.2266 152.774 85.2881 152.59C85.7796 151.229 86.1995 149.849 86.7217 148.233Z" fill="white"/>
<path d="M113.265 70.6079C114.637 71.7431 116.03 72.8477 117.361 74.0238C117.597 74.2284 117.607 74.7397 117.617 75.1181C117.802 80.3443 117.587 85.5602 116.696 90.725C116.409 92.4022 115.866 94.0795 115.19 95.6545C114.412 97.4545 113.04 97.6488 111.893 96.0534C110.541 94.1818 109.374 92.1465 108.36 90.0704C107.377 88.0556 106.691 85.8875 105.882 83.7909C105.667 83.2386 105.605 82.7477 106.404 82.6147C109.558 82.0931 111.227 79.9556 112.036 77.1125C112.528 75.3738 112.641 73.5227 112.917 71.7124C112.968 71.4056 112.958 71.0988 112.979 70.792C113.081 70.7409 113.173 70.6693 113.265 70.6079Z" fill="white"/>
<path d="M11.9555 156.824C12.1808 157.468 12.3447 157.99 12.529 158.491C12.9898 159.708 13.4507 160.915 13.9422 162.121C14.1675 162.694 14.1573 163.083 13.4097 163.134C11.6586 163.267 9.90744 163.42 8.14606 163.543C7.79788 163.563 7.43946 163.533 7.09129 163.471C5.49376 163.185 5.24799 162.531 6.30276 161.283C7.85933 159.483 9.78455 158.153 11.9555 156.824Z" fill="white"/>
<path d="M110.982 33.9739C112.456 33.5341 113.931 33.1046 115.395 32.6546C115.928 32.491 116.46 32.2864 116.972 32.0614C117.576 31.7853 118.129 31.4785 118.57 32.3171C119.082 33.2785 119.031 34.2398 118.304 34.6591C116.747 35.5694 115.027 35.7126 113.306 35.3546C112.466 35.1807 111.678 34.7512 110.859 34.4444C110.9 34.2807 110.941 34.1273 110.982 33.9739Z" fill="black"/>
<path d="M123.239 34.2398C123.854 34.9864 124.345 35.5489 124.796 36.1421C125.83 37.5023 125.257 39.0159 123.229 39.5887C123.577 39.1898 123.741 38.9648 123.936 38.7807C125.062 37.7069 125.052 37.3898 124.059 36.1421C123.362 35.2625 122.676 34.3625 122.144 33.3807C121.376 31.9796 121.898 31.2739 123.485 31.3864C124.397 31.458 125.308 31.5296 126.219 31.5807C127.039 31.6216 127.223 31.9284 126.783 32.6239C126.219 33.5137 125.4 34.0046 124.345 34.1171C124.079 34.1478 123.813 34.1682 123.239 34.2398Z" fill="black"/>
<path d="M86.3941 35.2012C88.4525 35.0273 90.2855 35.7228 91.9035 37.0114C93.542 38.3205 94.5661 40.0284 94.9859 42.0432C94.8528 42.125 94.7094 42.1966 94.5763 42.2784C94.3613 41.8898 94.1052 41.5114 93.9312 41.1023C92.6613 38.0546 90.5313 36.1625 87.111 35.9273C86.8242 35.9068 86.5375 35.733 86.261 35.6205C86.3019 35.4875 86.3532 35.3443 86.3941 35.2012Z" fill="black"/>
<path d="M124.438 44.5386C124.274 45.7761 122.84 46.3693 120.987 46.1238C118.877 45.8375 117.515 44.0886 117.771 41.7363C119.164 44.7738 121.222 46.0011 124.438 44.5386Z" fill="black"/>
<path d="M86.7218 148.233C86.1995 149.849 85.7797 151.229 85.2984 152.59C85.2369 152.774 84.8683 152.845 84.643 152.968C84.5406 152.712 84.2948 152.416 84.346 152.191C84.5815 151.24 84.8785 150.299 85.2062 149.368C85.4212 148.754 85.2267 148.468 84.6225 148.284C82.943 147.762 81.2738 147.21 79.6251 146.607C79.3384 146.504 79.1745 146.065 78.9492 145.778C79.2872 145.717 79.6558 145.533 79.9528 145.615C81.9087 146.198 83.8544 146.811 85.7899 147.476C86.1586 147.599 86.4453 148.008 86.7218 148.233Z" fill="black"/>
<path d="M102.554 98.6714C102.554 98.6714 103.568 141.636 97.3208 152.078C97.3208 152.078 112.364 157.028 117.771 161.692H122.451C122.451 161.692 126.302 136.042 109.056 97.6589C109.067 97.6589 106.957 99.7658 102.554 98.6714Z" fill="black"/>
<path d="M182.133 105.595L155.61 166.079H221.887L248.717 106.874C249.393 105.391 248.318 103.714 246.689 103.693L185.963 103.11C184.304 103.1 182.799 104.072 182.133 105.595Z" fill="#C4C4C4"/>
<path d="M117.781 161.692L155.61 161.58L153.685 166.069H124.304L117.781 161.692Z" fill="#C4C4C4"/>
<path d="M147.766 164.668H142.932C142.461 164.668 142.093 164.29 142.093 163.829C142.093 163.359 142.471 162.991 142.932 162.991H147.766C148.237 162.991 148.606 163.369 148.606 163.829C148.616 164.29 148.237 164.668 147.766 164.668Z" fill="white"/>
<path d="M151.002 164.821C151.55 164.821 151.995 164.377 151.995 163.829C151.995 163.282 151.55 162.837 151.002 162.837C150.453 162.837 150.008 163.282 150.008 163.829C150.008 164.377 150.453 164.821 151.002 164.821Z" fill="white"/>
<path d="M224.928 144.295C223.638 142.996 223.628 142.26 225 141.023C227.243 138.998 229.997 137.873 232.783 136.84C234.073 136.359 235.363 135.95 236.797 136.349C239.603 137.136 240.586 140.47 238.528 142.546C237.975 143.099 237.831 143.477 238.159 144.234C238.753 145.604 238.231 147.2 236.899 148.274C236.193 148.846 235.374 149.276 234.606 149.767C235.589 152.682 234.81 154.318 231.912 155.504C231.687 155.596 231.421 155.893 231.39 156.128C231.124 158.02 230.049 159.34 228.195 159.687C225.154 160.27 222.225 159.861 219.45 158.44C219.357 158.388 219.265 158.337 219.173 158.276C218.446 157.724 217.545 157.223 217.801 156.108C218.036 155.065 219.04 154.973 219.859 154.686C220.146 154.594 220.453 154.574 220.945 154.492C220.607 154.175 220.392 153.96 220.177 153.766C219.112 152.825 219.153 151.7 220.422 151.025C221.344 150.544 222.409 150.329 223.402 150.002C223.587 149.941 223.781 149.9 224.15 149.808C223.239 149.409 222.481 149.153 221.795 148.765C220.515 148.038 220.392 147.067 221.58 146.198C222.593 145.471 223.771 144.95 224.928 144.295ZM230.325 143.948C232.383 143.682 234.145 143.528 235.875 143.211C237.893 142.843 239.265 141.002 238.835 139.376C238.313 137.392 236.602 136.492 234.452 137.116C233.438 137.412 232.394 137.678 231.472 138.159C229.424 139.243 227.437 140.419 225.471 141.636C225.123 141.851 224.744 142.577 224.867 142.843C225.031 143.221 225.645 143.559 226.096 143.62C227.591 143.815 229.106 143.866 230.325 143.948ZM228.523 149.593C228.543 149.501 228.553 149.399 228.574 149.307C229.629 149.307 230.694 149.348 231.748 149.296C233.305 149.215 234.913 149.061 236.101 147.926C236.756 147.302 237.309 146.453 237.627 145.604C237.985 144.623 237.196 143.763 236.346 143.856C233.786 144.132 231.236 144.459 228.666 144.551C226.403 144.633 224.396 145.369 222.481 146.463C222.122 146.668 221.631 147.19 221.692 147.435C221.784 147.813 222.276 148.253 222.675 148.356C224.601 148.816 226.567 149.184 228.523 149.593ZM228.625 155.198C228.646 155.106 228.656 155.024 228.676 154.932C229.311 154.932 229.946 154.973 230.581 154.921C232.025 154.799 233.315 154.287 233.971 152.927C234.257 152.334 234.391 151.403 234.104 150.882C233.858 150.432 232.957 150.248 232.301 150.125C231.769 150.023 231.185 150.176 230.622 150.207C227.642 150.401 224.611 150.268 221.733 151.26C221.18 151.454 220.75 152.027 220.269 152.426C220.689 152.856 221.109 153.295 221.539 153.704C221.631 153.796 221.795 153.817 221.928 153.848C224.16 154.318 226.393 154.758 228.625 155.198ZM222.358 155.198C221.662 155.279 220.801 155.31 219.982 155.515C219.491 155.637 219.06 156.046 218.61 156.323C218.917 156.752 219.142 157.335 219.562 157.581C221.805 158.931 224.314 159.37 226.884 159.207C228.185 159.125 229.455 158.654 230.253 157.478C230.847 156.599 230.622 155.852 229.68 155.77C227.294 155.545 224.898 155.392 222.358 155.198Z" fill="black"/>
<path d="M230.325 143.948C229.106 143.866 227.591 143.815 226.085 143.631C225.624 143.569 225.02 143.232 224.856 142.853C224.734 142.577 225.112 141.861 225.461 141.647C227.427 140.43 229.413 139.243 231.462 138.169C232.383 137.678 233.438 137.423 234.442 137.126C236.592 136.502 238.302 137.402 238.825 139.386C239.255 141.002 237.893 142.853 235.865 143.222C234.145 143.528 232.383 143.682 230.325 143.948Z" fill="white"/>
<path d="M228.523 149.593C226.567 149.184 224.601 148.826 222.665 148.345C222.266 148.253 221.774 147.803 221.682 147.425C221.621 147.169 222.112 146.648 222.471 146.453C224.385 145.369 226.393 144.633 228.656 144.541C231.226 144.439 233.776 144.111 236.336 143.845C237.186 143.753 237.975 144.612 237.616 145.594C237.309 146.443 236.746 147.282 236.09 147.916C234.903 149.051 233.305 149.204 231.738 149.286C230.683 149.337 229.618 149.297 228.564 149.297C228.553 149.399 228.543 149.491 228.523 149.593Z" fill="white"/>
<path d="M228.625 155.198C226.393 154.758 224.16 154.308 221.928 153.868C221.795 153.838 221.631 153.817 221.539 153.725C221.098 153.306 220.689 152.876 220.269 152.447C220.76 152.048 221.18 151.475 221.733 151.281C224.611 150.289 227.642 150.422 230.622 150.227C231.185 150.186 231.769 150.043 232.301 150.146C232.947 150.268 233.858 150.452 234.104 150.902C234.38 151.414 234.247 152.355 233.971 152.948C233.315 154.298 232.025 154.819 230.581 154.942C229.946 154.993 229.311 154.952 228.676 154.952C228.666 155.024 228.646 155.116 228.625 155.198Z" fill="white"/>
<path d="M222.358 155.198C224.898 155.392 227.294 155.545 229.68 155.76C230.622 155.852 230.847 156.599 230.253 157.468C229.444 158.655 228.185 159.115 226.884 159.197C224.314 159.36 221.805 158.92 219.562 157.57C219.142 157.325 218.927 156.742 218.61 156.313C219.06 156.036 219.491 155.627 219.982 155.505C220.801 155.31 221.662 155.29 222.358 155.198Z" fill="white"/>
</svg>
