<svg width="252" height="162" viewBox="0 0 252 162" fill="none" xmlns="http://www.w3.org/2000/svg">
<path d="M171.549 151.612L199.729 90.6666C200.202 89.6361 201.232 88.9868 202.354 88.9868H249.561C250.848 88.9868 251.702 90.3162 251.167 91.491L223.347 152.787L171.549 151.612Z" fill="#C4C4C4"/>
<path d="M202.457 92.7172L176.203 150.314H220.876L246.184 93.8817C246.595 92.9542 245.926 91.9031 244.907 91.9031H203.734C203.188 91.8928 202.684 92.2122 202.457 92.7172Z" fill="white"/>
<path d="M137.212 150.705H132.579V149.51C132.579 148.851 133.114 148.325 133.763 148.325H136.028C136.687 148.325 137.212 148.861 137.212 149.51V150.705Z" fill="#6B6B6B"/>
<path d="M156.754 150.705H152.121V149.51C152.121 148.851 152.656 148.325 153.305 148.325H155.57C156.229 148.325 156.754 148.861 156.754 149.51V150.705Z" fill="#6B6B6B"/>
<path d="M146.777 150.706H142.144C142.144 150.046 142.679 149.52 143.328 149.52H145.593C146.242 149.51 146.777 150.046 146.777 150.706Z" fill="#6B6B6B"/>
<path d="M188.547 24.0012L188.135 34.9558L196.496 26.9279L188.547 24.0012Z" fill="#333333"/>
<path d="M200.511 118.285H205.7C206.009 118.285 206.287 118.46 206.421 118.738L208.357 122.737C208.593 123.231 209.242 123.345 209.633 122.963L219.332 113.606C219.486 113.462 219.682 113.379 219.888 113.379H226.426C227.136 113.379 227.497 114.235 227.002 114.75L207.574 134.547C207.173 134.948 206.493 134.825 206.267 134.31L199.77 119.408C199.543 118.882 199.935 118.285 200.511 118.285Z" fill="#C4C4C4"/>
<path d="M164.126 133.094C164.023 133.094 163.93 133.042 163.868 132.96C163.775 132.826 154.787 119.387 152.543 100.776C151.225 89.842 152.471 79.279 156.229 69.3962C160.923 57.0504 169.582 45.7248 181.968 35.7493C182.102 35.6462 182.298 35.6668 182.401 35.8008C182.504 35.9348 182.483 36.1306 182.349 36.2336C170.056 46.137 161.459 57.3699 156.805 69.6126C153.078 79.4027 151.853 89.8523 153.15 100.694C155.364 119.161 164.28 132.496 164.373 132.63C164.465 132.774 164.434 132.96 164.29 133.052C164.249 133.073 164.187 133.094 164.126 133.094Z" fill="black"/>
<path d="M180.455 102.116C180.352 102.116 180.239 102.054 180.187 101.961C180.146 101.889 175.966 94.222 174.597 82.7418C173.33 72.1376 174.267 55.9994 185.901 39.3357C185.994 39.1914 186.19 39.1605 186.324 39.2636C186.457 39.3563 186.499 39.5521 186.396 39.6861C174.885 56.1849 173.958 72.1479 175.194 82.6387C176.542 94.0158 180.671 101.59 180.712 101.662C180.795 101.807 180.743 102.002 180.589 102.075C180.548 102.095 180.496 102.116 180.455 102.116Z" fill="black"/>
<path d="M177.067 20.4664L188.547 25.3615L201.582 37.2642L214.966 4.68896L177.067 20.4664Z" fill="#C4C4C4"/>
<path d="M214.789 4.46257L188.36 25.1379L188.734 25.617L215.163 4.94162L214.789 4.46257Z" fill="white"/>
<path d="M220.876 155.261H118.278C116.909 155.261 115.807 154.158 115.807 152.787C115.807 151.417 116.909 150.314 118.278 150.314H220.876C222.246 150.314 223.347 151.417 223.347 152.787C223.347 154.148 222.246 155.261 220.876 155.261Z" fill="#C4C4C4"/>
<path d="M213.309 153.622H207.07C206.586 153.622 206.205 153.23 206.205 152.756C206.205 152.272 206.596 151.891 207.07 151.891H213.309C213.793 151.891 214.174 152.282 214.174 152.756C214.174 153.23 213.793 153.622 213.309 153.622Z" fill="white"/>
<path d="M217.571 153.694C218.072 153.694 218.477 153.288 218.477 152.787C218.477 152.286 218.072 151.88 217.571 151.88C217.071 151.88 216.665 152.286 216.665 152.787C216.665 153.288 217.071 153.694 217.571 153.694Z" fill="white"/>
<path d="M63.9058 127.333C63.9058 127.333 93.5166 104.713 102.175 92.9851C102.175 92.9851 99.7868 81.5153 103.205 78.2794C106.623 75.0435 110.144 77.9908 110.144 77.9908C110.144 77.9908 115.632 73.7966 119.874 78.5164C119.874 78.5164 123.2 78.3721 123.488 81.8863C123.488 81.8863 126.525 82.2675 125.897 86.2763C125.897 86.2763 127.483 86.0702 126.772 90.8107C126.062 95.5511 109.794 125.468 109.794 125.468L63.9058 127.333Z" fill="white"/>
<path d="M62.9482 127.683L63.7204 127.096C64.019 126.869 93.2181 104.507 101.846 92.9233C101.578 91.5527 99.6633 81.2268 102.999 78.0733C106.108 75.126 109.341 77.0634 110.155 77.6302C111.174 76.9397 116.106 74.0027 120.018 78.2382C120.687 78.2588 123.395 78.5577 123.776 81.6596C124.178 81.7626 124.981 82.0615 125.578 82.855C126.175 83.6588 126.402 84.7306 126.247 86.06C126.371 86.1012 126.505 86.1836 126.638 86.3176C127.287 86.9771 127.441 88.5126 127.091 90.8829C126.381 95.6233 110.742 124.427 110.083 125.643L110 125.797L109.825 125.808L62.9482 127.683ZM106.737 77.0737C105.728 77.0737 104.564 77.4241 103.421 78.5165C100.168 81.5978 102.453 92.8203 102.474 92.9336L102.505 93.0676L102.423 93.181C94.6183 103.744 69.5685 123.355 64.8633 127.003L109.609 125.2C110.865 122.881 125.804 95.2523 126.474 90.7901C126.886 88.0077 126.494 87.0699 126.216 86.771C126.062 86.5959 125.928 86.6062 125.928 86.6062L125.557 86.6165L125.599 86.2455C125.804 84.9573 125.629 83.9474 125.094 83.226C124.445 82.3604 123.467 82.2161 123.457 82.2161L123.21 82.1852L123.189 81.9378C122.932 78.7638 120.028 78.8359 119.895 78.8462L119.75 78.8565L119.658 78.7535C117.98 76.8882 115.91 76.2287 113.501 76.8058C111.679 77.2489 110.35 78.2485 110.34 78.2588L110.144 78.4031L109.959 78.2485C109.866 78.1558 108.518 77.0737 106.737 77.0737Z" fill="black"/>
<path d="M116.528 96.8498C116.023 96.8498 115.529 96.5819 115.066 96.046C113.882 94.6651 114.541 90.9345 116.415 88.3788C118.649 85.3387 122.026 84.4937 125.691 86.0704C125.846 86.1322 125.918 86.3177 125.856 86.4723C125.784 86.6269 125.609 86.699 125.454 86.6372C120.832 84.6483 118.124 87.1112 116.919 88.7498C115.107 91.2231 114.644 94.6135 115.54 95.6544C115.91 96.0769 116.25 96.2727 116.6 96.2418C117.537 96.1696 118.525 94.5414 119.39 93.0986C119.648 92.6761 119.905 92.2536 120.152 91.8723C120.739 90.986 121.418 90.4708 122.17 90.3265C123.107 90.1513 123.797 90.6254 123.828 90.646C123.962 90.7387 124.003 90.9345 123.9 91.0685C123.807 91.2025 123.611 91.2437 123.478 91.1509C123.467 91.1509 122.953 90.8005 122.273 90.9345C121.686 91.0479 121.151 91.4807 120.657 92.2124C120.409 92.5834 120.162 92.9956 119.905 93.4181C118.906 95.0567 117.877 96.7467 116.641 96.8498C116.6 96.8498 116.559 96.8498 116.528 96.8498Z" fill="black"/>
<path d="M114.582 93.9746C114.531 93.9746 114.489 93.9643 114.438 93.9437C113.8 93.6036 112.605 92.5628 112.142 90.7696C111.823 89.5536 111.782 87.5853 113.367 85.1532C116.713 80.0109 123.478 81.5979 123.55 81.6082C123.714 81.6494 123.817 81.8143 123.776 81.9792C123.735 82.1441 123.57 82.2368 123.406 82.2059C123.344 82.1853 116.991 80.7219 113.882 85.483C112.708 87.2864 112.317 89.0177 112.729 90.6151C113.141 92.2021 114.201 93.1296 114.716 93.3975C114.87 93.4799 114.922 93.6654 114.839 93.8097C114.798 93.9128 114.695 93.9746 114.582 93.9746Z" fill="black"/>
<path d="M112.615 91.5219C112.564 91.5219 112.523 91.5116 112.471 91.491C112.337 91.4188 109.238 89.7081 110.227 84.5555C111.205 79.4028 119.287 78.3207 119.637 78.2795C119.812 78.2589 119.956 78.3723 119.977 78.5474C119.997 78.7123 119.884 78.8669 119.709 78.8875C119.627 78.8978 111.73 79.9593 110.824 84.6688C109.928 89.3578 112.646 90.8933 112.759 90.9551C112.904 91.0375 112.965 91.223 112.883 91.3673C112.832 91.4703 112.718 91.5219 112.615 91.5219Z" fill="black"/>
<path d="M105.398 98.2925C105.336 98.2925 105.285 98.2719 105.223 98.241C105.099 98.1585 102.124 96.1284 101.867 93.0162C101.856 92.8513 101.98 92.6967 102.145 92.6864C102.309 92.6761 102.464 92.7998 102.474 92.9646C102.711 95.7883 105.542 97.7154 105.563 97.736C105.707 97.8288 105.738 98.0246 105.645 98.1585C105.594 98.241 105.501 98.2925 105.398 98.2925Z" fill="black"/>
<path d="M110.175 95.3968C110.083 95.3968 109.99 95.3555 109.928 95.2731C109.825 95.1391 109.846 94.9433 109.98 94.8403C110.422 94.5002 112.657 92.7792 113.563 92.8307C113.727 92.841 113.861 92.9853 113.851 93.1502C113.841 93.3151 113.707 93.4594 113.532 93.4388C113.532 93.4388 113.521 93.4388 113.511 93.4388C112.996 93.4388 111.359 94.5311 110.35 95.3143C110.309 95.3761 110.237 95.3968 110.175 95.3968Z" fill="black"/>
<path d="M104.41 84.0712C104.255 84.0712 104.121 83.9578 104.111 83.8032C104.101 83.7002 103.998 82.8036 104.482 82.278C104.708 82.0307 105.027 81.8967 105.408 81.9174C105.882 81.938 106.325 82.1853 106.829 82.4635C107.787 82.9994 108.878 83.6074 110.567 82.9891C110.721 82.9273 110.906 83.0097 110.958 83.1746C111.02 83.3292 110.937 83.5147 110.772 83.5662C108.827 84.2876 107.498 83.5456 106.52 83.0097C106.078 82.7624 105.697 82.546 105.377 82.5357C105.182 82.5254 105.027 82.5769 104.924 82.7006C104.677 82.9788 104.677 83.5456 104.708 83.7414C104.729 83.9063 104.605 84.0609 104.441 84.0815C104.441 84.0712 104.42 84.0712 104.41 84.0712Z" fill="black"/>
<path d="M112.008 81.7318C111.854 81.7318 111.73 81.6185 111.709 81.4639C111.709 81.4433 111.38 79.1452 109.98 78.2486C109.836 78.1559 109.794 77.9704 109.887 77.8261C109.98 77.6818 110.165 77.6406 110.309 77.7334C111.957 78.7742 112.296 81.2784 112.317 81.3814C112.338 81.5463 112.224 81.7009 112.049 81.7215C112.039 81.7318 112.018 81.7318 112.008 81.7318Z" fill="black"/>
<path d="M92.5282 2.94745C72.9043 1.66959 68.3123 16.1177 64.5029 22.7543C60.6934 29.4013 49.2547 38.9955 29.9603 40.3559C10.6555 41.7058 10.6555 60.781 10.532 74.0749C10.4084 87.3688 4.04559 103.713 1.30689 112.473C-1.13322 120.253 2.7792 142.502 24.174 142.379C45.5688 142.255 107.735 15.7364 107.735 15.7364C107.735 15.7364 102.824 3.6173 92.5282 2.94745Z" fill="black"/>
<path d="M81.8103 28.1647C81.8103 28.1647 87.7819 23.0635 88.585 4.01924C88.6468 2.62802 89.6455 1.4326 91.0148 1.18527C92.9916 0.824582 95.7097 0.979164 97.0482 3.98832C99.2927 9.03794 84.5799 30.4009 84.5799 30.4009L81.8103 28.1647Z" fill="white"/>
<path d="M84.6417 30.8543L81.3264 28.1749L81.6044 27.9379C81.6147 27.9276 83.087 26.6291 84.6417 23.0532C86.0728 19.7451 87.8643 13.7577 88.2761 4.0192C88.3379 2.4837 89.4704 1.16462 90.953 0.896681C93.0843 0.505078 95.9156 0.711184 97.3262 3.87492C99.6222 9.0276 85.4345 29.7104 84.827 30.5864L84.6417 30.8543ZM82.2736 28.144L84.5181 29.9578C85.3109 28.7932 88.4717 24.0734 91.3958 18.9413C96.9452 9.18217 97.3777 5.49287 96.7702 4.12225C95.5244 1.3192 92.9813 1.14401 91.0766 1.49439C89.872 1.7108 88.9556 2.78256 88.9042 4.03981C88.1835 20.9406 83.4577 26.8971 82.2736 28.144Z" fill="black"/>
<path d="M111.792 30.4009C111.792 30.4009 111.792 30.4009 111.864 40.6651C111.936 50.7849 98.0056 46.5082 97.5937 46.3948L97.4805 46.5288C95.9464 47.9922 94.7006 50.1357 93.7122 52.6296H93.7019C89.7277 62.6361 89.3364 78.2899 89.3364 78.2899C89.3364 78.2899 61.342 63.4089 66.8503 58.1738C72.3586 52.9284 79.0303 38.3257 79.0303 38.3257C79.0303 38.3257 70.2891 35.1517 74.9017 28.4738C78.1346 23.7849 85.2902 29.6486 85.2902 29.6486C91.9001 28.7521 99.7456 22.4143 99.7456 22.4143C99.7456 22.4143 99.2617 25.6502 101.115 25.3822C102.968 25.104 105.182 20.2193 105.377 18.9723C105.583 17.7357 103.112 18.2819 103.452 18.0139C103.792 17.7357 106.386 13.9536 106.386 13.9536C106.386 13.9536 108.271 16.6433 109.722 21.7444C111.164 26.8353 112.265 25.1864 113.635 27.1857C115.025 29.1643 111.792 30.4009 111.792 30.4009Z" fill="white"/>
<path d="M89.6248 78.7844L89.1821 78.5474C88.2657 78.063 66.7062 66.5314 65.8414 60.1833C65.7178 59.3073 65.9855 58.5447 66.6238 57.9367C71.5967 53.2066 77.6301 40.5619 78.5979 38.4802C77.5786 38.0474 74.3663 36.5016 73.4706 33.6779C72.9352 31.9982 73.3264 30.1844 74.6443 28.2882C75.3959 27.2062 76.4049 26.5673 77.6404 26.3921C80.8836 25.918 84.6828 28.7726 85.3726 29.3188C91.7972 28.381 99.4676 22.2287 99.55 22.1669L100.157 21.6722L100.044 22.4451C99.9721 22.9501 99.8898 24.3619 100.405 24.8772C100.569 25.0421 100.785 25.0936 101.063 25.0627C102.649 24.8257 104.863 20.1779 105.069 18.9001C105.099 18.7455 105.058 18.6734 105.027 18.6424C104.832 18.4054 104.163 18.3951 103.812 18.3951C103.452 18.3848 103.215 18.3848 103.133 18.1375L103.061 17.9314L103.257 17.7459C103.473 17.5604 104.894 15.5508 106.129 13.7474L106.376 13.3867L106.634 13.7474C106.716 13.8608 108.569 16.5402 110.011 21.631C110.917 24.836 111.648 25.2482 112.42 25.6913C112.863 25.9386 113.367 26.2272 113.882 26.9795C114.263 27.536 114.366 28.0924 114.201 28.6386C113.872 29.7001 112.585 30.3699 112.08 30.5966L112.152 40.6547C112.173 43.1073 111.38 44.952 109.805 46.1371C106.15 48.8886 99.3544 47.2089 97.6658 46.7245C96.2553 48.0642 95.0198 50.084 93.9696 52.7222L93.8873 52.918C90.0469 62.7699 89.6248 78.1249 89.6145 78.2795L89.6248 78.7844ZM78.3714 26.9692C78.1552 26.9692 77.939 26.9795 77.7331 27.0104C76.6726 27.165 75.7975 27.7111 75.1591 28.6489C73.9648 30.3802 73.5941 32.0188 74.0677 33.5028C75.0253 36.5119 79.0921 38.0165 79.1333 38.0371L79.4422 38.1505L79.3083 38.4493C79.0304 39.047 72.544 53.1653 67.0563 58.3902C66.5621 58.8642 66.3664 59.4207 66.4591 60.1112C67.221 65.676 85.9389 76.0947 89.0482 77.7848C89.1615 75.0333 89.8616 61.4612 93.424 52.5161L93.5063 52.3203C94.5771 49.6821 95.8435 47.652 97.2746 46.302L97.5011 46.0444L97.6864 46.0959C99.0661 46.4978 105.933 48.3321 109.465 45.6631C110.875 44.6016 111.576 42.9218 111.565 40.6753L111.483 30.1947L111.679 30.1226C111.699 30.1123 113.326 29.4837 113.635 28.4737C113.748 28.1131 113.666 27.7421 113.398 27.3402C112.955 26.7012 112.564 26.4745 112.142 26.2375C111.298 25.7531 110.412 25.2585 109.444 21.8165C108.332 17.9005 106.942 15.4066 106.397 14.4997C105.779 15.3963 104.667 17.0039 104.049 17.7974C104.554 17.8077 105.192 17.8695 105.522 18.2611C105.635 18.4054 105.758 18.6424 105.697 19.0134C105.501 20.1986 103.287 25.3615 101.177 25.681C100.703 25.7531 100.291 25.6295 99.9927 25.3306C99.4573 24.7844 99.375 23.7848 99.3956 23.0944C97.4805 24.5577 91.025 29.1951 85.3417 29.9577L85.2079 29.9783L85.1049 29.8959C85.0637 29.8547 81.4911 26.9692 78.3714 26.9692Z" fill="black"/>
<path d="M97.5732 46.0649C96.0391 47.5283 94.7933 49.6718 93.8049 52.1657H93.7946C85.4035 47.1573 87.3288 38.7069 88.5437 41.139C89.7689 43.5813 97.5732 46.0649 97.5732 46.0649Z" fill="black"/>
<path d="M23.3813 113.987C23.3813 113.987 1.85264 98.447 14.4342 93.1191C27.0157 87.7912 47.2883 70.8905 54.6601 64.429C62.0216 57.9676 75.8799 49.9088 79.0407 59.7813C82.1912 69.6435 85.2491 73.9512 89.7278 75.4248C89.7278 75.4248 86.6081 119.089 89.7278 124.416L93.7226 155.93C93.7226 155.93 45.6924 166.297 15.9271 152.148C15.9271 152.148 31.3194 123.613 32.9358 119.377L23.3813 113.987Z" fill="white"/>
<path d="M56.9046 159.898C43.7877 159.898 28.1895 158.321 15.783 152.426L15.4947 152.292L15.6491 152.004C15.8036 151.726 30.5164 124.427 32.5446 119.511L23.2063 114.235C22.64 113.833 9.45103 104.228 10.2129 97.4164C10.4394 95.4378 11.8191 93.892 14.3107 92.8305C28.4263 86.8534 51.8288 66.4901 54.4542 64.192C59.2006 60.0286 68.8581 53.4229 74.9636 55.1233C77.0742 55.7107 78.5465 57.2462 79.329 59.6886C82.4075 69.3344 85.3521 73.6626 89.8205 75.1363L90.047 75.2084L90.0264 75.4454C89.9955 75.8783 86.948 119.078 89.9852 124.262L90.0264 124.375L94.0521 156.167L93.7741 156.229C93.6506 156.26 81.5632 158.836 65.9856 159.65C63.1645 159.805 60.1067 159.898 56.9046 159.898ZM16.339 152.014C24.8536 156.002 40.318 160.392 65.9547 159.053C80.1836 158.311 91.4884 156.085 93.3726 155.703L89.419 124.53C86.4229 119.099 89.1204 79.4645 89.3881 75.6515C84.8373 74.0439 81.8309 69.5817 78.7319 59.8844C78.0214 57.6584 76.6933 56.2569 74.7885 55.7313C69.7024 54.3195 60.8788 59.3794 54.8455 64.6763C52.22 66.9847 28.7455 87.3996 14.5372 93.4179C12.2618 94.3867 11.0057 95.7573 10.8101 97.5092C10.0997 103.868 23.0416 113.39 23.5358 113.75L33.2859 119.253L33.1933 119.501C31.6695 123.51 18.0378 148.85 16.339 152.014Z" fill="black"/>
<path d="M64.1528 125.674L63.6792 125.293C63.813 125.128 77.28 107.835 80.1011 63.6975L80.7085 63.7387C79.2259 86.9051 74.8193 102.497 71.3805 111.504C67.6328 121.273 64.1837 125.633 64.1528 125.674Z" fill="black"/>
<path d="M12.6633 95.6852C10.2437 98.1688 15.4534 105.826 23.5151 112.225L27.479 102.631C27.479 102.631 17.2346 90.9962 12.6633 95.6852Z" fill="black"/>
<path d="M27.479 103.126C27.479 103.126 -0.433102 155.59 56.2147 160.856C65.1824 161.341 85.2593 160.537 105.46 152.086C125.65 143.636 128.625 142.358 128.625 142.358C128.625 142.358 128.749 145.615 131.024 145.676C133.3 145.738 133.845 143.451 133.845 143.451C133.845 143.451 134.268 146.996 136.728 146.996C139.189 146.996 139.735 142.904 139.735 142.904C139.735 142.904 141.712 149.098 144.358 149.098C147.004 149.098 146.386 129.868 135.163 125.478C123.941 121.088 95.061 122.86 83.9312 123.747C72.8013 124.633 64.1425 126.22 62.0319 125.87C59.9212 125.519 44.1892 122.417 38.094 114.73C31.9886 107.042 27.479 103.126 27.479 103.126Z" fill="white"/>
<path d="M60.3844 161.268C58.4179 161.268 56.9868 161.207 56.194 161.165C39.7824 159.64 28.8482 154.003 23.69 144.419C14.4752 127.312 27.0773 103.218 27.2112 102.981L27.3965 102.641L27.6848 102.889C27.726 102.93 32.287 106.908 38.3307 114.534C44.7038 122.582 61.9082 125.53 62.073 125.56C63.154 125.736 66.1604 125.375 70.3199 124.87C74.047 124.417 78.6905 123.85 83.9002 123.438C95.6169 122.51 124.075 120.82 135.266 125.189C144.718 128.879 146.623 142.688 145.747 147.305C145.418 149.036 144.8 149.397 144.347 149.397C142.185 149.397 140.507 145.821 139.796 144.007C139.436 145.295 138.581 147.294 136.718 147.294C134.865 147.294 134.062 145.563 133.732 144.44C133.31 145.151 132.497 145.996 131.004 145.975C129.192 145.924 128.502 144.069 128.337 142.801C127.04 143.358 121.974 145.491 105.563 152.365C86.8654 160.207 68.7961 161.268 60.3844 161.268ZM27.5715 103.62C26.0683 106.64 15.7725 128.425 24.2357 144.131C29.2909 153.519 40.0707 159.053 56.2455 160.557C60.405 160.784 82.3867 161.423 105.336 151.818C125.29 143.471 128.461 142.101 128.492 142.09L128.903 141.915L128.924 142.358C128.924 142.389 129.058 145.326 131.024 145.378C133.022 145.398 133.516 143.471 133.537 143.389L133.938 141.74L134.144 143.43C134.144 143.461 134.566 146.707 136.718 146.707C138.89 146.707 139.415 142.925 139.415 142.884L139.59 141.534L140.002 142.832C140.538 144.491 142.35 148.809 144.337 148.809C144.563 148.809 144.913 148.397 145.14 147.212C145.984 142.729 144.152 129.343 135.029 125.777C123.951 121.449 95.6066 123.139 83.9311 124.066C78.7317 124.478 74.0985 125.045 70.3714 125.499C66.006 126.034 63.1231 126.385 61.9494 126.189C61.7744 126.158 44.3435 123.17 37.8262 114.936C32.7092 108.443 28.6629 104.62 27.5715 103.62Z" fill="black"/>
<path d="M50.3565 133.867C50.2947 133.867 50.2329 133.846 50.1814 133.815C50.0373 133.722 50.0064 133.526 50.0991 133.392C50.1402 133.331 54.7631 126.725 61.9599 125.571C62.1246 125.55 62.2791 125.653 62.31 125.828C62.3408 125.993 62.2276 126.158 62.0526 126.179C55.1131 127.292 50.6447 133.681 50.5933 133.743C50.5521 133.825 50.4594 133.867 50.3565 133.867Z" fill="black"/>
<path d="M133.835 143.76C133.815 143.76 133.794 143.76 133.784 143.76C133.619 143.729 133.506 143.574 133.537 143.399C134.432 138.473 133.835 134.866 131.745 132.671C129.078 129.868 124.816 130.394 124.775 130.404C124.6 130.425 124.456 130.311 124.435 130.136C124.414 129.971 124.528 129.817 124.703 129.796C124.888 129.775 129.305 129.219 132.198 132.249C134.432 134.588 135.081 138.38 134.154 143.512C134.113 143.657 133.979 143.76 133.835 143.76Z" fill="black"/>
<path d="M139.621 143.76C139.601 143.76 139.57 143.76 139.549 143.749C139.385 143.708 139.282 143.543 139.323 143.378C140.867 136.773 139.611 132.331 138.273 129.765C136.831 126.993 134.999 125.746 134.978 125.736C134.834 125.643 134.803 125.447 134.896 125.313C134.988 125.169 135.174 125.128 135.318 125.231C135.39 125.282 142.978 130.466 139.92 143.523C139.889 143.667 139.766 143.76 139.621 143.76Z" fill="black"/>
<path d="M128.615 142.667C128.45 142.667 128.306 142.533 128.306 142.368C128.306 142.348 128.286 140.441 128.09 139.483C128.059 139.339 127.997 139.236 127.884 139.163C127.555 138.947 126.937 139.019 126.731 139.06C126.566 139.091 126.402 138.988 126.371 138.823C126.34 138.659 126.443 138.494 126.607 138.463C126.71 138.442 127.627 138.257 128.224 138.648C128.471 138.813 128.646 139.06 128.698 139.359C128.903 140.38 128.924 142.276 128.924 142.358C128.924 142.533 128.79 142.667 128.615 142.667Z" fill="black"/>
<path d="M108.332 24.9493C108.703 23.3005 106.757 23.8879 106.15 24.7432C105.542 25.6089 102.598 27.8863 102.145 27.8863C101.692 27.8863 107.323 29.4734 108.332 24.9493Z" fill="#232323"/>
<path d="M107.642 38.1403C106.51 38.1403 105.614 37.8208 104.976 37.1922C103.771 36.007 103.926 34.183 103.915 34.1109C103.905 33.7914 104.399 33.7811 104.574 33.7914C104.739 33.8017 104.863 33.9563 104.852 34.1212C104.852 34.1418 104.41 35.7803 105.408 36.7593C106.057 37.388 107.045 37.6353 108.343 37.491C108.518 37.4807 108.662 37.5941 108.682 37.759C108.703 37.9238 108.579 38.0784 108.415 38.099C108.147 38.13 107.89 38.1403 107.642 38.1403Z" fill="black"/>
<path d="M84.8989 35.6153C84.7548 35.6153 84.6209 35.5122 84.6003 35.3577C83.8899 31.2561 77.9286 31.5035 77.8668 31.5035C77.7021 31.5138 77.558 31.3798 77.5477 31.2149C77.5374 31.05 77.6712 30.9057 77.836 30.8954C77.8977 30.8851 84.4047 30.6275 85.1975 35.2649C85.2284 35.4298 85.1151 35.5947 84.9504 35.6153C84.9401 35.6153 84.9195 35.6153 84.8989 35.6153Z" fill="black"/>
<path d="M86.6184 40.3249H86.6082C86.3919 40.3146 81.244 40.0467 79.3084 38.7276C79.1642 38.6348 79.1334 38.439 79.226 38.3051C79.3187 38.1711 79.5143 38.1299 79.6482 38.2226C81.4396 39.449 86.5773 39.7169 86.6287 39.7169C86.7935 39.7272 86.9273 39.8715 86.917 40.0364C86.917 40.2013 86.7832 40.3249 86.6184 40.3249Z" fill="black"/>
</svg>
