<svg width="152" height="32" viewBox="0 0 152 32" fill="none" xmlns="http://www.w3.org/2000/svg">
<path d="M0.606223 25.1587V1.886H5.52668V12.1474H5.8335L14.2085 1.886H20.1062L11.4699 12.3065L20.2085 25.1587H14.3221L7.94713 15.5905L5.52668 18.5451V25.1587H0.606223ZM27.5551 25.4883C26.4415 25.4883 25.449 25.2951 24.5778 24.9087C23.7066 24.5148 23.0172 23.9352 22.5096 23.1701C22.0096 22.3974 21.7596 21.4352 21.7596 20.2837C21.7596 19.314 21.9377 18.4996 22.2937 17.8405C22.6498 17.1815 23.1346 16.6512 23.7483 16.2496C24.3619 15.8481 25.0589 15.5451 25.8392 15.3405C26.6271 15.136 27.4528 14.9921 28.3165 14.9087C29.3316 14.8027 30.1498 14.7042 30.771 14.6133C31.3922 14.5148 31.843 14.3709 32.1233 14.1815C32.4036 13.9921 32.5437 13.7118 32.5437 13.3405V13.2724C32.5437 12.5527 32.3165 11.9959 31.8619 11.6019C31.4149 11.208 30.7786 11.011 29.9528 11.011C29.0816 11.011 28.3884 11.2042 27.8733 11.5905C27.3581 11.9693 27.0172 12.4466 26.8505 13.0224L22.3733 12.6587C22.6005 11.5981 23.0475 10.6815 23.7142 9.90873C24.3808 9.12843 25.2407 8.52994 26.2937 8.11327C27.3543 7.68903 28.5816 7.47691 29.9755 7.47691C30.9452 7.47691 31.8733 7.59055 32.7596 7.81782C33.6536 8.04509 34.4452 8.39737 35.1346 8.87464C35.8316 9.35191 36.3808 9.96555 36.7824 10.7155C37.1839 11.458 37.3846 12.3481 37.3846 13.386V25.1587H32.7937V22.7383H32.6574C32.3771 23.2837 32.0021 23.7648 31.5324 24.1815C31.0627 24.5905 30.4983 24.9125 29.8392 25.1474C29.1801 25.3746 28.4187 25.4883 27.5551 25.4883ZM28.9415 22.1474C29.6536 22.1474 30.2824 22.0072 30.8278 21.7269C31.3733 21.439 31.8013 21.0527 32.1119 20.5678C32.4225 20.083 32.5778 19.5337 32.5778 18.9201V17.0678C32.4263 17.1663 32.218 17.2572 31.9528 17.3405C31.6952 17.4163 31.4036 17.4883 31.0778 17.5565C30.7521 17.6171 30.4263 17.6739 30.1005 17.7269C29.7748 17.7724 29.4793 17.814 29.2142 17.8519C28.646 17.9352 28.1498 18.0678 27.7255 18.2496C27.3013 18.4315 26.9718 18.6777 26.7369 18.9883C26.5021 19.2913 26.3846 19.6701 26.3846 20.1246C26.3846 20.7837 26.6233 21.2875 27.1005 21.636C27.5854 21.9769 28.199 22.1474 28.9415 22.1474ZM46.1176 25.4883C45.004 25.4883 44.0115 25.2951 43.1403 24.9087C42.2691 24.5148 41.5797 23.9352 41.0721 23.1701C40.5721 22.3974 40.3221 21.4352 40.3221 20.2837C40.3221 19.314 40.5002 18.4996 40.8562 17.8405C41.2123 17.1815 41.6971 16.6512 42.3108 16.2496C42.9244 15.8481 43.6214 15.5451 44.4017 15.3405C45.1896 15.136 46.0153 14.9921 46.879 14.9087C47.8941 14.8027 48.7123 14.7042 49.3335 14.6133C49.9547 14.5148 50.4055 14.3709 50.6858 14.1815C50.9661 13.9921 51.1062 13.7118 51.1062 13.3405V13.2724C51.1062 12.5527 50.879 11.9959 50.4244 11.6019C49.9774 11.208 49.3411 11.011 48.5153 11.011C47.6441 11.011 46.9509 11.2042 46.4358 11.5905C45.9206 11.9693 45.5797 12.4466 45.413 13.0224L40.9358 12.6587C41.163 11.5981 41.61 10.6815 42.2767 9.90873C42.9433 9.12843 43.8032 8.52994 44.8562 8.11327C45.9168 7.68903 47.1441 7.47691 48.538 7.47691C49.5077 7.47691 50.4358 7.59055 51.3221 7.81782C52.2161 8.04509 53.0077 8.39737 53.6971 8.87464C54.3941 9.35191 54.9433 9.96555 55.3449 10.7155C55.7464 11.458 55.9471 12.3481 55.9471 13.386V25.1587H51.3562V22.7383H51.2199C50.9396 23.2837 50.5646 23.7648 50.0949 24.1815C49.6252 24.5905 49.0608 24.9125 48.4017 25.1474C47.7426 25.3746 46.9812 25.4883 46.1176 25.4883ZM47.504 22.1474C48.2161 22.1474 48.8449 22.0072 49.3903 21.7269C49.9358 21.439 50.3638 21.0527 50.6744 20.5678C50.985 20.083 51.1403 19.5337 51.1403 18.9201V17.0678C50.9888 17.1663 50.7805 17.2572 50.5153 17.3405C50.2577 17.4163 49.9661 17.4883 49.6403 17.5565C49.3146 17.6171 48.9888 17.6739 48.663 17.7269C48.3373 17.7724 48.0418 17.814 47.7767 17.8519C47.2085 17.9352 46.7123 18.0678 46.288 18.2496C45.8638 18.4315 45.5343 18.6777 45.2994 18.9883C45.0646 19.2913 44.9471 19.6701 44.9471 20.1246C44.9471 20.7837 45.1858 21.2875 45.663 21.636C46.1479 21.9769 46.7615 22.1474 47.504 22.1474ZM59.7028 7.70418H64.5437V26.0224C64.5437 27.3709 64.2786 28.4618 63.7483 29.2951C63.218 30.1284 62.4566 30.7383 61.4642 31.1246C60.4793 31.511 59.3013 31.7042 57.9301 31.7042C57.7634 31.7042 57.6043 31.7004 57.4528 31.6928C57.2937 31.6928 57.1271 31.689 56.9528 31.6815V27.8974C57.0816 27.9049 57.1952 27.9087 57.2937 27.9087C57.3846 27.9163 57.4831 27.9201 57.5892 27.9201C58.3695 27.9201 58.9149 27.7534 59.2255 27.4201C59.5437 27.0943 59.7028 26.6019 59.7028 25.9428V7.70418ZM62.1119 5.45418C61.3998 5.45418 60.7861 5.21555 60.271 4.73827C59.7558 4.25343 59.4983 3.67388 59.4983 2.99964C59.4983 2.33297 59.7558 1.761 60.271 1.28373C60.7861 0.79888 61.3998 0.556456 62.1119 0.556456C62.8392 0.556456 63.4566 0.79888 63.9642 1.28373C64.4793 1.761 64.7369 2.33297 64.7369 2.99964C64.7369 3.67388 64.4793 4.25343 63.9642 4.73827C63.4566 5.21555 62.8392 5.45418 62.1119 5.45418Z" fill="#6AB960"/>
<path d="M72.8079 20.136L72.8193 14.3292H73.5238L79.1147 7.70418H84.6716L77.1602 16.4769H76.0125L72.8079 20.136ZM68.4216 25.1587V1.886H73.2625V25.1587H68.4216ZM79.3307 25.1587L74.1943 17.5565L77.4216 14.136L85.0011 25.1587H79.3307ZM91.8875 15.0678V25.1587H87.0466V1.886H91.7511V10.7837H91.9557C92.3496 9.75343 92.986 8.94661 93.8647 8.36327C94.7435 7.77237 95.8458 7.47691 97.1716 7.47691C98.3837 7.47691 99.4405 7.74206 100.342 8.27237C101.251 8.79509 101.956 9.54888 102.456 10.5337C102.963 11.511 103.213 12.6815 103.206 14.0451V25.1587H98.3647V14.9087C98.3723 13.833 98.0996 12.9959 97.5466 12.3974C97.0011 11.7989 96.236 11.4996 95.2511 11.4996C94.592 11.4996 94.0087 11.6398 93.5011 11.9201C93.0011 12.2004 92.6072 12.6095 92.3193 13.1474C92.039 13.6777 91.895 14.3178 91.8875 15.0678ZM114.902 25.4996C113.137 25.4996 111.61 25.1246 110.322 24.3746C109.042 23.6171 108.053 22.564 107.356 21.2155C106.659 19.8595 106.311 18.2875 106.311 16.4996C106.311 14.6966 106.659 13.1209 107.356 11.7724C108.053 10.4163 109.042 9.36327 110.322 8.61327C111.61 7.8557 113.137 7.47691 114.902 7.47691C116.667 7.47691 118.19 7.8557 119.47 8.61327C120.758 9.36327 121.75 10.4163 122.447 11.7724C123.144 13.1209 123.493 14.6966 123.493 16.4996C123.493 18.2875 123.144 19.8595 122.447 21.2155C121.75 22.564 120.758 23.6171 119.47 24.3746C118.19 25.1246 116.667 25.4996 114.902 25.4996ZM114.924 21.7496C115.727 21.7496 116.398 21.5224 116.936 21.0678C117.474 20.6057 117.879 19.9769 118.152 19.1815C118.432 18.386 118.572 17.4807 118.572 16.4655C118.572 15.4504 118.432 14.5451 118.152 13.7496C117.879 12.9542 117.474 12.3254 116.936 11.8633C116.398 11.4012 115.727 11.1701 114.924 11.1701C114.114 11.1701 113.432 11.4012 112.879 11.8633C112.333 12.3254 111.921 12.9542 111.64 13.7496C111.368 14.5451 111.231 15.4504 111.231 16.4655C111.231 17.4807 111.368 18.386 111.64 19.1815C111.921 19.9769 112.333 20.6057 112.879 21.0678C113.432 21.5224 114.114 21.7496 114.924 21.7496ZM126.64 7.70418H131.481V26.0224C131.481 27.3709 131.216 28.4618 130.686 29.2951C130.155 30.1284 129.394 30.7383 128.402 31.1246C127.417 31.511 126.239 31.7042 124.868 31.7042C124.701 31.7042 124.542 31.7004 124.39 31.6928C124.231 31.6928 124.065 31.689 123.89 31.6815V27.8974C124.019 27.9049 124.133 27.9087 124.231 27.9087C124.322 27.9163 124.421 27.9201 124.527 27.9201C125.307 27.9201 125.852 27.7534 126.163 27.4201C126.481 27.0943 126.64 26.6019 126.64 25.9428V7.70418ZM129.049 5.45418C128.337 5.45418 127.724 5.21555 127.208 4.73827C126.693 4.25343 126.436 3.67388 126.436 2.99964C126.436 2.33297 126.693 1.761 127.208 1.28373C127.724 0.79888 128.337 0.556456 129.049 0.556456C129.777 0.556456 130.394 0.79888 130.902 1.28373C131.417 1.761 131.674 2.33297 131.674 2.99964C131.674 3.67388 131.417 4.25343 130.902 4.73827C130.394 5.21555 129.777 5.45418 129.049 5.45418ZM143.245 25.4996C141.48 25.4996 139.954 25.1246 138.666 24.3746C137.386 23.6171 136.397 22.564 135.7 21.2155C135.003 19.8595 134.655 18.2875 134.655 16.4996C134.655 14.6966 135.003 13.1209 135.7 11.7724C136.397 10.4163 137.386 9.36327 138.666 8.61327C139.954 7.8557 141.48 7.47691 143.245 7.47691C145.011 7.47691 146.533 7.8557 147.814 8.61327C149.101 9.36327 150.094 10.4163 150.791 11.7724C151.488 13.1209 151.836 14.6966 151.836 16.4996C151.836 18.2875 151.488 19.8595 150.791 21.2155C150.094 22.564 149.101 23.6171 147.814 24.3746C146.533 25.1246 145.011 25.4996 143.245 25.4996ZM143.268 21.7496C144.071 21.7496 144.742 21.5224 145.28 21.0678C145.817 20.6057 146.223 19.9769 146.495 19.1815C146.776 18.386 146.916 17.4807 146.916 16.4655C146.916 15.4504 146.776 14.5451 146.495 13.7496C146.223 12.9542 145.817 12.3254 145.28 11.8633C144.742 11.4012 144.071 11.1701 143.268 11.1701C142.458 11.1701 141.776 11.4012 141.223 11.8633C140.677 12.3254 140.264 12.9542 139.984 13.7496C139.711 14.5451 139.575 15.4504 139.575 16.4655C139.575 17.4807 139.711 18.386 139.984 19.1815C140.264 19.9769 140.677 20.6057 141.223 21.0678C141.776 21.5224 142.458 21.7496 143.268 21.7496Z" fill="#263238"/>
</svg>
