<?xml version="1.0" encoding="UTF-8"?>
<svg version="1.1" xmlns="http://www.w3.org/2000/svg" width="242" height="50">
<path d="M0 0 C2.64 0 5.28 0 8 0 C8.33 4.95 8.66 9.9 9 15 C10.2375 13.453125 11.475 11.90625 12.75 10.3125 C14.16666667 8.54166667 15.58333333 6.77083333 17 5 C17.639375 4.071875 18.27875 3.14375 18.9375 2.1875 C21 0 21 0 23.578125 -0.48828125 C24.90070313 -0.40126953 24.90070313 -0.40126953 26.25 -0.3125 C27.14203125 -0.26738281 28.0340625 -0.22226562 28.953125 -0.17578125 C29.62859375 -0.11777344 30.3040625 -0.05976563 31 0 C29.32770299 3.95969176 26.63695006 7.0161201 23.875 10.25 C23.40707031 10.80429688 22.93914062 11.35859375 22.45703125 11.9296875 C21.30824672 13.28947326 20.15460347 14.64515165 19 16 C20.561927 20.71271078 23.1922319 24.25660494 26.125 28.1875 C31 34.73450413 31 34.73450413 31 37 C27.45615307 37.71893616 24.51826612 37.92454436 21 37 C17.70656254 33.7011457 15.4248961 29.95828628 13 26 C12.34 25.34 11.68 24.68 11 24 C8.89172945 27.16240582 8.66182535 28.50657469 8.375 32.1875 C8.30023438 33.08855469 8.22546875 33.98960938 8.1484375 34.91796875 C8.07496094 35.94857422 8.07496094 35.94857422 8 37 C5.36 37 2.72 37 0 37 C0 24.79 0 12.58 0 0 Z " fill="#4BAE4E" transform="translate(106,2)"/>
<path d="M0 0 C2.64 0 5.28 0 8 0 C8.33 4.62 8.66 9.24 9 14 C10.2375 12.618125 11.475 11.23625 12.75 9.8125 C13.48992188 8.99523438 14.22984375 8.17796875 14.9921875 7.3359375 C17.1220516 4.98396627 17.1220516 4.98396627 18.875 1.9375 C21.53955729 -0.49194929 22.71377651 -0.29268922 26.25 -0.3125 C27.83473048 -0.23234745 29.41906283 -0.1357675 31 0 C29.32770299 3.95969176 26.63695006 7.0161201 23.875 10.25 C23.40707031 10.80429688 22.93914063 11.35859375 22.45703125 11.9296875 C21.30824672 13.28947326 20.15460347 14.64515165 19 16 C20.61472935 20.78850772 23.2870199 24.624197 26.125 28.75 C31 35.88119835 31 35.88119835 31 37 C27.45615307 37.71893616 24.51826612 37.92454436 21 37 C17.70656254 33.7011457 15.4248961 29.95828628 13 26 C12.34 25.34 11.68 24.68 11 24 C8.89172945 27.16240582 8.66182535 28.50657469 8.375 32.1875 C8.30023438 33.08855469 8.22546875 33.98960938 8.1484375 34.91796875 C8.07496094 35.94857422 8.07496094 35.94857422 8 37 C5.36 37 2.72 37 0 37 C0 24.79 0 12.58 0 0 Z " fill="#FFFFFF" transform="translate(0,2)"/>
<path d="M0 0 C2.64 0 5.28 0 8 0 C8.33 3.96 8.66 7.92 9 12 C10.32 11.01 11.64 10.02 13 9 C17.24649943 8.45953644 19.25823192 8.51623821 22.875 10.875 C25.15806998 13.15806998 25.95184891 14.04712626 26.11352539 17.24658203 C26.10828857 18.15778809 26.10305176 19.06899414 26.09765625 20.0078125 C26.09443359 20.99394531 26.09121094 21.98007812 26.08789062 22.99609375 C26.07951172 24.02863281 26.07113281 25.06117187 26.0625 26.125 C26.05798828 27.16527344 26.05347656 28.20554687 26.04882812 29.27734375 C26.03701952 31.85161962 26.02055075 34.42578146 26 37 C23.36 37 20.72 37 18 37 C17.505 27.1 17.505 27.1 17 17 C14.69 17.33 12.38 17.66 10 18 C9.67 24.27 9.34 30.54 9 37 C6.03 37 3.06 37 0 37 C0 24.79 0 12.58 0 0 Z " fill="#4BAF4E" transform="translate(140,2)"/>
<path d="M0 0 C3.10679749 1.33773574 5.44873594 2.89747189 7 6 C7.08426094 7.6674606 7.10725143 9.33825187 7.09765625 11.0078125 C7.09443359 11.99394531 7.09121094 12.98007812 7.08789062 13.99609375 C7.07951172 15.02863281 7.07113281 16.06117187 7.0625 17.125 C7.05798828 18.16527344 7.05347656 19.20554687 7.04882812 20.27734375 C7.03701952 22.85161962 7.02055075 25.42578146 7 28 C3.66666667 28 0.33333333 28 -3 28 C-3.66 28.33 -4.32 28.66 -5 29 C-9.99220285 29.37677003 -12.98020143 29.07396361 -17 26 C-18.56935594 22.86128812 -18.35201103 20.46144178 -18 17 C-15.83508272 13.6406456 -14.08362533 12.29221357 -10.21875 11.25 C-7.48284752 10.74230676 -4.76317845 10.32422584 -2 10 C-2 9.01 -2 8.02 -2 7 C-5.81813447 7.27540704 -5.81813447 7.27540704 -9 9 C-11.67058851 9.14115161 -14.32432238 9.04247107 -17 9 C-16.80037128 5.40668306 -16.21261372 4.20171045 -13.5625 1.6875 C-8.89460499 -0.52360816 -5.08261214 -0.84023734 0 0 Z M-9 18 C-9.96877057 20.03243548 -9.96877057 20.03243548 -10 22 C-7.70705512 22.85974801 -7.70705512 22.85974801 -5 23 C-2.60371845 21.35380651 -2.60371845 21.35380651 -1 19 C-1 18.01 -1 17.02 -1 16 C-3.99432393 16 -6.25822503 16.83328724 -9 18 Z " fill="#FFFFFF" transform="translate(80,11)"/>
<path d="M0 0 C3.10679749 1.33773574 5.44873594 2.89747189 7 6 C7.08426094 7.6674606 7.10725143 9.33825187 7.09765625 11.0078125 C7.09443359 11.99394531 7.09121094 12.98007812 7.08789062 13.99609375 C7.07951172 15.02863281 7.07113281 16.06117187 7.0625 17.125 C7.05798828 18.16527344 7.05347656 19.20554687 7.04882812 20.27734375 C7.03701952 22.85161962 7.02055075 25.42578146 7 28 C3.66666667 28 0.33333333 28 -3 28 C-3.66 28.33 -4.32 28.66 -5 29 C-9.99220285 29.37677003 -12.98020143 29.07396361 -17 26 C-18.56935594 22.86128812 -18.35201103 20.46144178 -18 17 C-15.83508272 13.6406456 -14.08362533 12.29221357 -10.21875 11.25 C-7.48284752 10.74230676 -4.76317845 10.32422584 -2 10 C-2 9.01 -2 8.02 -2 7 C-5.81813447 7.27540704 -5.81813447 7.27540704 -9 9 C-11.67058851 9.14115161 -14.32432238 9.04247107 -17 9 C-16.80037128 5.40668306 -16.21261372 4.20171045 -13.5625 1.6875 C-8.89460499 -0.52360816 -5.08261214 -0.84023734 0 0 Z M-9 18 C-9.96877057 20.03243548 -9.96877057 20.03243548 -10 22 C-7.70705512 22.85974801 -7.70705512 22.85974801 -5 23 C-2.60371845 21.35380651 -2.60371845 21.35380651 -1 19 C-1 18.01 -1 17.02 -1 16 C-3.99432393 16 -6.25822503 16.83328724 -9 18 Z " fill="#FFFFFF" transform="translate(51,11)"/>
<path d="M0 0 C4.14901633 3.84542977 5.71156016 7.27357473 5.9375 12.875 C5.78455869 17.00441531 4.88710575 19.88809138 2.5625 23.375 C-1.3465316 26.91755989 -5.04140471 27.74543914 -10.30859375 27.6484375 C-13.96730838 27.17851085 -16.70023204 25.83709287 -19.4375 23.375 C-22.19771681 18.65591966 -23.10352407 14.79833883 -22.4375 9.375 C-21.06532606 5.38389192 -19.39656833 2.27765254 -16.3125 -0.625 C-10.63833647 -2.5986221 -5.43880342 -2.57107071 0 0 Z M-11.4375 5.375 C-13.90553687 9.07705531 -13.99038088 12.08153444 -13.4375 16.375 C-12.43713019 18.93508963 -12.43713019 18.93508963 -10.4375 20.375 C-7.89459375 20.95850505 -7.89459375 20.95850505 -5.4375 20.375 C-3.35616533 17.252998 -3.1637178 16.44233011 -3.1875 12.875 C-3.18234375 12.1015625 -3.1771875 11.328125 -3.171875 10.53125 C-3.31011938 8.07986156 -3.31011938 8.07986156 -5.4375 5.375 C-8.4375 4.875 -8.4375 4.875 -11.4375 5.375 Z " fill="#4CAF4F" transform="translate(192.4375,12.625)"/>
<path d="M0 0 C4.38544865 2.19272433 7.23315916 4.38658225 9 9 C9.66198068 14.34488104 9.67332051 18.60348339 7.3125 23.5 C3.6369874 27.47352714 0.98193241 29.15561677 -4.4375 29.4375 C-9.77259538 29.25108236 -13.00822495 27.13506822 -16.62890625 23.25390625 C-19.41475972 18.67431236 -18.78705472 13.14084155 -18 8 C-14.06343042 0.48585619 -8.03119964 -0.98845534 0 0 Z M-8.8125 8.5625 C-10.44489575 11.91320706 -10.39469235 14.31620474 -10 18 C-8.98009206 20.50098982 -8.98009206 20.50098982 -7 22 C-4.5 22.75 -4.5 22.75 -2 22 C0.12286005 19.73561595 0.98539773 18.09099799 1.02734375 14.95703125 C0.58251029 10.50713352 0.58251029 10.50713352 -2 7 C-5.08912191 6.52475047 -6.41011729 6.49148042 -8.8125 8.5625 Z " fill="#4CAF4F" transform="translate(233,11)"/>
<path d="M0 0 C2.64 0 5.28 0 8 0 C8.09900135 4.76881876 8.17152928 9.5370373 8.21972656 14.30664062 C8.23982144 15.92849143 8.26710254 17.55026997 8.30175781 19.171875 C8.3503727 21.5053898 8.37298889 23.83794557 8.390625 26.171875 C8.41127014 26.89493835 8.43191528 27.61800171 8.45318604 28.36297607 C8.45473084 31.84196904 8.26341198 33.65848964 6.109375 36.45117188 C3.82186568 38.13079677 2.5514291 38.56323806 -0.25 38.75 C-1.4875 38.8325 -2.725 38.915 -4 39 C-4 36.69 -4 34.38 -4 32 C-3.01 31.67 -2.02 31.34 -1 31 C-0.67 20.77 -0.34 10.54 0 0 Z " fill="#4BAE4E" transform="translate(202,11)"/>
<path d="M0 0 C2.64 0 5.28 0 8 0 C8.09900135 4.76881876 8.17152928 9.5370373 8.21972656 14.30664062 C8.23982144 15.92849143 8.26710254 17.55026997 8.30175781 19.171875 C8.3503727 21.5053898 8.37298889 23.83794557 8.390625 26.171875 C8.41127014 26.89493835 8.43191528 27.61800171 8.45318604 28.36297607 C8.45473084 31.84196904 8.26341198 33.65848964 6.109375 36.45117188 C3.82186568 38.13079677 2.5514291 38.56323806 -0.25 38.75 C-1.4875 38.8325 -2.725 38.915 -4 39 C-4 36.69 -4 34.38 -4 32 C-3.01 31.67 -2.02 31.34 -1 31 C-0.67 20.77 -0.34 10.54 0 0 Z " fill="#FFFFFF" transform="translate(92,11)"/>
<path d="M0 0 C3.125 0.375 3.125 0.375 6 1 C6.6875 3.3125 6.6875 3.3125 7 6 C5.875 7.875 5.875 7.875 4 9 C-0.42105263 8.57894737 -0.42105263 8.57894737 -2 7 C-2.1875 4.5625 -2.1875 4.5625 -2 2 C-1.34 1.34 -0.68 0.68 0 0 Z " fill="#FFFFFF" transform="translate(94,0)"/>
<path d="M0 0 C3.125 0.375 3.125 0.375 6 1 C6.6875 3.3125 6.6875 3.3125 7 6 C5.875 7.875 5.875 7.875 4 9 C-0.42105263 8.57894737 -0.42105263 8.57894737 -2 7 C-2.1875 4.5625 -2.1875 4.5625 -2 2 C-1.34 1.34 -0.68 0.68 0 0 Z " fill="#4CAE4F" transform="translate(204,0)"/>
</svg>
